mtllib Pedestal.mtl

v 0.02228883 -0.4312368 -0.3073433
v 0.2015921 -0.5075947 -0.2331547
v 0.2013935 -0.4314166 -0.233156
v 0.2486376 -0.4387293 -0.01811866
v -0.02228821 -0.50737 -0.307342
v -0.02248692 -0.4311919 -0.3073433
v 0.188601 -0.438669 0.1630564
v 0.1884402 0.003472656 0.1630572
v -0.1629783 -0.4999634 -0.1886821
v -0.1886003 -0.4999377 -0.1630601
v -0.2486369 -0.4998774 -0.01811769
v -0.2486369 -0.4998774 0.01811737
v -0.1886003 -0.4999377 0.1630597
v -0.1629783 -0.4999634 0.1886817
v -0.01803681 -0.500109 0.2487181
v 0.01819814 -0.5001453 0.2487179
v -0.1889219 0.003851563 -0.1630601
v -0.1890827 0.4819507 -0.1630611
v 0.01921698 0.4675045 0.2692352
v 0.01904291 0.495314 0.2692362
v 0.01771582 0.4817431 -0.2487195
v 0.1761157 0.4673471 -0.2042486
v 0.1759416 0.4951564 -0.2042475
v 0.019043 0.495314 -0.2692367
v 0.1628181 0.003498346 -0.1886821
v 0.1626573 0.4815975 -0.1886831
v 0.2688408 0.4672539 -0.01961329
v 0.2686667 0.4950633 -0.01961225
v -0.233054 -0.5071584 -0.2014935
v -0.2332528 -0.4309802 -0.2014948
v 0.01803734 -0.4384977 0.2487171
v 0.01787653 0.0036439 0.2487179
v -0.1770799 0.495511 0.2042472
v -0.1769058 0.4677015 0.2042462
v -0.2491194 0.482011 0.01811642
v -0.2489585 0.003911883 0.01811737
v -0.2048156 0.4955387 -0.1765117
v -0.2046415 0.4677294 -0.1765128
v 0.01771573 0.4817431 0.248717
v 0.01787653 0.0036439 0.2487179
v 0.1628181 0.003498346 -0.1886821
v 0.162979 -0.4386433 -0.1886831
v 0.3072422 -0.431523 -0.02238905
v 0.3074408 -0.5077012 -0.02238786
v -0.1889219 0.003851563 -0.1630601
v -0.1887612 -0.4382901 -0.1630611
v 0.02228872 -0.4312368 0.3073406
v 0.02248742 -0.5074149 0.3073416
v -0.1632999 0.003825873 0.1886817
v -0.1631392 -0.4383158 0.1886808
v -0.3074402 -0.4309057 0.02238673
v -0.3072413 -0.5070838 0.0223879
v -0.01803681 -0.500109 -0.2487185
v 0.01819823 -0.5001453 -0.2487185
v 0.1631397 -0.5002909 -0.1886821
v 0.1887617 -0.5003166 -0.1630601
v 0.2487983 -0.5003769 -0.01811769
v 0.2487982 -0.5003769 0.01811733
v 0.1887618 -0.5003166 0.1630572
v 0.1631398 -0.5002909 0.1886794
v 0.2036774 0.4951287 0.1765089
v 0.2038515 0.4673192 0.1765079
v -0.01851922 0.4817794 -0.2487195
v -0.01835841 0.003680319 -0.2487185
v -0.2698049 0.4956041 0.01961205
v -0.2696309 0.4677946 0.01961102
v -0.1634607 0.481925 0.1886808
v -0.1632999 0.003825873 0.1886817
v -0.02018128 0.4953534 -0.2692367
v -0.02000721 0.4675439 -0.2692378
v 0.1882794 0.4815718 0.1630563
v 0.1884402 0.003472656 0.1630572
v -0.01835841 0.003680319 -0.2487185
v -0.01819762 -0.4384614 -0.2487196
v 0.2330548 -0.4314485 0.2014894
v 0.2332533 -0.5076265 0.2014905
v -0.2489585 0.003911883 0.01811737
v -0.2487978 -0.4382298 0.01811642
v -0.2015916 -0.431012 0.2331536
v -0.2013928 -0.5071901 0.2331547
v 0.188601 -0.438669 0.1630564
v 0.2486375 -0.4387293 0.01811638
v 0.3072421 -0.4315229 0.02238669
v 0.2330548 -0.4314485 0.2014894
v 0.2487982 -0.5003769 0.01811733
v 0.1887618 -0.5003166 0.1630572
v 0.2332533 -0.5076265 0.2014905
v 0.3074407 -0.507701 0.02238785
v 0.1629791 -0.4386433 0.1886786
v 0.188601 -0.438669 0.1630564
v 0.2330548 -0.4314485 0.2014894
v 0.2013936 -0.4314166 0.2331509
v 0.1887618 -0.5003166 0.1630572
v 0.1631398 -0.5002909 0.1886794
v 0.2015922 -0.5075947 0.2331519
v 0.2332533 -0.5076265 0.2014905
v 0.01803734 -0.4384977 0.2487171
v 0.1629791 -0.4386433 0.1886786
v 0.2013936 -0.4314166 0.2331509
v 0.02228872 -0.4312368 0.3073406
v 0.1631398 -0.5002909 0.1886794
v 0.01819814 -0.5001453 0.2487179
v 0.02248742 -0.5074149 0.3073416
v 0.2015922 -0.5075947 0.2331519
v -0.01819762 -0.4384614 0.2487173
v 0.01803734 -0.4384977 0.2487171
v 0.02228872 -0.4312368 0.3073406
v -0.02248692 -0.4311919 0.3073409
v 0.01819814 -0.5001453 0.2487179
v -0.01803681 -0.500109 0.2487181
v -0.02228821 -0.50737 0.3073419
v 0.02248742 -0.5074149 0.3073416
v -0.1631392 -0.4383158 0.1886808
v -0.01819762 -0.4384614 0.2487173
v -0.02248692 -0.4311919 0.3073409
v -0.2015916 -0.431012 0.2331536
v -0.01803681 -0.500109 0.2487181
v -0.1629783 -0.4999634 0.1886817
v -0.2013928 -0.5071901 0.2331547
v -0.02228821 -0.50737 0.3073419
v -0.1887612 -0.4382901 0.1630588
v -0.1631392 -0.4383158 0.1886808
v -0.2015916 -0.431012 0.2331536
v -0.2332528 -0.4309802 0.2014924
v -0.1629783 -0.4999634 0.1886817
v -0.1886003 -0.4999377 0.1630597
v -0.233054 -0.5071584 0.2014935
v -0.2013928 -0.5071901 0.2331547
v -0.2487978 -0.4382298 0.01811642
v -0.1887612 -0.4382901 0.1630588
v -0.2332528 -0.4309802 0.2014924
v -0.3074402 -0.4309057 0.02238673
v -0.1886003 -0.4999377 0.1630597
v -0.2486369 -0.4998774 0.01811737
v -0.3072413 -0.5070838 0.0223879
v -0.233054 -0.5071584 0.2014935
v -0.2487978 -0.4382298 -0.01811866
v -0.2487978 -0.4382298 0.01811642
v -0.3074402 -0.4309057 0.02238673
v -0.3074402 -0.4309057 -0.02238905
v -0.2486369 -0.4998774 0.01811737
v -0.2486369 -0.4998774 -0.01811769
v -0.3072413 -0.5070838 -0.02238786
v -0.3072413 -0.5070838 0.0223879
v -0.1887612 -0.4382901 -0.1630611
v -0.2487978 -0.4382298 -0.01811866
v -0.3074402 -0.4309057 -0.02238905
v -0.2332528 -0.4309802 -0.2014948
v -0.2486369 -0.4998774 -0.01811769
v -0.1886003 -0.4999377 -0.1630601
v -0.233054 -0.5071584 -0.2014935
v -0.3072413 -0.5070838 -0.02238786
v -0.1631392 -0.4383158 -0.1886831
v -0.1887612 -0.4382901 -0.1630611
v -0.2332528 -0.4309802 -0.2014948
v -0.2015916 -0.431012 -0.233156
v -0.1886003 -0.4999377 -0.1630601
v -0.1629783 -0.4999634 -0.1886821
v -0.2013928 -0.5071901 -0.2331547
v -0.233054 -0.5071584 -0.2014935
v 0.02248752 -0.5074149 -0.307342
v 0.02228883 -0.4312368 -0.3073433
v 0.2486375 -0.4387293 0.01811638
v 0.2484766 0.003412336 0.01811733
v 0.1884401 0.003472656 -0.1630601
v 0.1628181 0.003498346 -0.1886821
v 0.162979 -0.4386433 -0.1886831
v 0.02248752 -0.5074149 -0.307342
v 0.1884401 0.003472656 -0.1630601
v 0.1882793 0.4815718 -0.1630611
v 0.2038514 0.4673192 -0.1765128
v 0.2036773 0.4951287 -0.1765117
v -0.02018128 0.4953534 -0.2692367
v -0.02000721 0.4675439 -0.2692378
v 0.1882794 0.4815718 0.1630563
v 0.1884402 0.003472656 0.1630572
v 0.1884402 0.003472656 0.1630572
v 0.188601 -0.438669 0.1630564
v -0.02248692 -0.4311919 -0.3073433
v -0.02228821 -0.50737 -0.307342
v -0.2048156 0.4955387 -0.1765117
v -0.2046415 0.4677294 -0.1765128
v 0.01771573 0.4817431 0.248717
v 0.01787653 0.0036439 0.2487179
v 0.01787653 0.0036439 0.2487179
v 0.01803734 -0.4384977 0.2487171
v -0.2332528 -0.4309802 -0.2014948
v -0.233054 -0.5071584 -0.2014935
v -0.1889219 0.003851563 0.1630597
v -0.1890827 0.4819507 0.1630587
v -0.2046415 0.4677294 0.1765105
v -0.2048156 0.4955387 0.1765115
v -0.1632999 0.003825873 0.1886817
v -0.1631392 -0.4383158 0.1886808
v -0.3074402 -0.4309057 0.02238673
v -0.3072413 -0.5070838 0.0223879
v -0.2489585 0.003911883 -0.01811769
v -0.2491194 0.482011 -0.01811865
v -0.02000721 0.4675439 0.2692355
v -0.02018128 0.4953534 0.2692364
v -0.2489585 0.003911883 0.01811737
v -0.2487978 -0.4382298 0.01811642
v -0.2015916 -0.431012 0.2331536
v -0.2013928 -0.5071901 0.2331547
v -0.1632999 0.003825873 -0.1886821
v -0.1634607 0.481925 -0.1886831
v 0.1761158 0.4673471 0.2042438
v 0.1759417 0.4951564 0.2042448
v -0.1889219 0.003851563 -0.1630601
v -0.1887612 -0.4382901 -0.1630611
v 0.02228872 -0.4312368 0.3073406
v 0.02248742 -0.5074149 0.3073416
v 0.01787662 0.0036439 -0.2487185
v 0.01771582 0.4817431 -0.2487195
v 0.2688408 0.4672539 0.01961099
v 0.2686667 0.4950633 0.01961201
v -0.01835841 0.003680319 -0.2487185
v -0.01819762 -0.4384614 -0.2487196
v 0.2330548 -0.4314485 0.2014894
v 0.2332533 -0.5076265 0.2014905
v 0.1882793 0.4815718 -0.1630611
v 0.2038514 0.4673192 -0.1765128
v 0.2036773 0.4951287 -0.1765117
v 0.01787662 0.0036439 -0.2487185
v 0.08276173 0.4678425 0.09641714
v 0.09585474 0.4678294 0.08332404
v 0.1265337 0.4677986 0.009258791
v 0.1265338 0.4677986 -0.00925754
v 0.0958547 0.4678294 -0.083324
v 0.08276169 0.4678425 -0.09641702
v 0.008695668 0.4679169 -0.1270961
v -0.009820668 0.4679355 -0.1270961
v -0.0838867 0.4680099 -0.09641702
v -0.09697971 0.468023 -0.083324
v -0.1276588 0.4680538 -0.00925754
v -0.1276588 0.4680538 0.009258809
v -0.09697971 0.468023 0.08332528
v -0.0838867 0.4680099 0.09641831
v -0.009820668 0.4679355 0.1270973
v 0.008695624 0.4679169 0.1270972
v 0.2013935 -0.4314166 -0.233156
v 0.2015921 -0.5075947 -0.2331547
v 0.1629791 -0.4386433 0.1886786
v 0.1628182 0.003498346 0.1886794
v 0.3072422 -0.431523 -0.02238905
v 0.3074408 -0.5077012 -0.02238786
v -0.2015916 -0.431012 -0.233156
v -0.2013928 -0.5071901 -0.2331547
v -0.01819762 -0.4384614 0.2487173
v -0.01835841 0.003680319 0.2487181
v -0.3074402 -0.4309057 -0.02238905
v -0.3072413 -0.5070838 -0.02238786
v -0.1887612 -0.4382901 0.1630588
v -0.1889219 0.003851563 0.1630597
v -0.2332528 -0.4309802 0.2014924
v -0.233054 -0.5071584 0.2014935
v -0.2487978 -0.4382298 -0.01811866
v -0.2489585 0.003911883 -0.01811769
v -0.02248692 -0.4311919 0.3073409
v -0.02228821 -0.50737 0.3073419
v -0.1631392 -0.4383158 -0.1886831
v -0.1632999 0.003825873 -0.1886821
v 0.2013936 -0.4314166 0.2331509
v 0.2015922 -0.5075947 0.2331519
v 0.01803743 -0.4384977 -0.2487196
v 0.01787662 0.0036439 -0.2487185
v 0.3072421 -0.4315229 0.02238669
v 0.3074407 -0.507701 0.02238785
v 0.2484767 0.003412336 -0.01811769
v 0.188601 -0.438669 -0.1630611
v 0.2332533 -0.5076265 -0.2014935
v 0.2330547 -0.4314484 -0.2014948
v 0.2484766 0.003412336 0.01811733
v 0.2486375 -0.4387293 0.01811638
v 0.2484767 0.003412336 -0.01811769
v 0.2486376 -0.4387293 -0.01811866
v -0.2013928 -0.5071901 -0.2331547
v -0.2015916 -0.431012 -0.233156
v 0.1628182 0.003498346 0.1886794
v 0.1629791 -0.4386433 0.1886786
v -0.3072413 -0.5070838 -0.02238786
v -0.3074402 -0.4309057 -0.02238905
v -0.01835841 0.003680319 0.2487181
v -0.01819762 -0.4384614 0.2487173
v -0.233054 -0.5071584 0.2014935
v -0.2332528 -0.4309802 0.2014924
v -0.1889219 0.003851563 0.1630597
v -0.1887612 -0.4382901 0.1630588
v -0.02228821 -0.50737 0.3073419
v -0.02248692 -0.4311919 0.3073409
v -0.2489585 0.003911883 -0.01811769
v -0.2487978 -0.4382298 -0.01811866
v 0.2015922 -0.5075947 0.2331519
v 0.2013936 -0.4314166 0.2331509
v -0.1632999 0.003825873 -0.1886821
v -0.1631392 -0.4383158 -0.1886831
v 0.3074407 -0.507701 0.02238785
v 0.3072421 -0.4315229 0.02238669
v 0.01787662 0.0036439 -0.2487185
v 0.01803743 -0.4384977 -0.2487196
v 0.2332533 -0.5076265 -0.2014935
v 0.2330547 -0.4314484 -0.2014948
v 0.1884401 0.003472656 -0.1630601
v 0.188601 -0.438669 -0.1630611
v 0.2486376 -0.4387293 -0.01811866
v 0.188601 -0.438669 -0.1630611
v 0.2330547 -0.4314484 -0.2014948
v 0.3072422 -0.431523 -0.02238905
v 0.1887617 -0.5003166 -0.1630601
v 0.2487983 -0.5003769 -0.01811769
v 0.3074408 -0.5077012 -0.02238786
v 0.2332533 -0.5076265 -0.2014935
v 0.2486375 -0.4387293 0.01811638
v 0.2486376 -0.4387293 -0.01811866
v 0.3072422 -0.431523 -0.02238905
v 0.3072421 -0.4315229 0.02238669
v 0.2487983 -0.5003769 -0.01811769
v 0.2487982 -0.5003769 0.01811733
v 0.3074407 -0.507701 0.02238785
v 0.3074408 -0.5077012 -0.02238786
v -0.2698049 0.4956041 0.01961205
v -0.2696309 0.4677946 0.01961102
v -0.2698049 0.4956041 -0.01961225
v -0.2696309 0.4677946 -0.01961329
v -0.01835841 0.003680319 0.2487181
v -0.01851922 0.4817794 0.2487172
v -0.1770799 0.495511 -0.2042475
v -0.1769058 0.4677015 -0.2042486
v 0.1628182 0.003498346 0.1886794
v 0.1626574 0.4815975 0.1886785
v 0.019043 0.495314 -0.2692367
v 0.01921708 0.4675045 -0.2692378
v 0.2484766 0.003412336 0.01811733
v 0.2483159 0.4815115 0.01811638
v 0.2484767 0.003412336 -0.01811769
v 0.2483159 0.4815115 -0.01811865
v 0.1882793 0.4815718 -0.1630611
v 0.2483159 0.4815115 -0.01811865
v 0.2688408 0.4672539 -0.01961329
v 0.2038514 0.4673192 -0.1765128
v 0.2481551 0.5072016 -0.01811769
v 0.1881185 0.5072619 -0.1630601
v 0.2036773 0.4951287 -0.1765117
v 0.2686667 0.4950633 -0.01961225
v 0.2483159 0.4815115 -0.01811865
v 0.2483159 0.4815115 0.01811638
v 0.2688408 0.4672539 0.01961099
v 0.2688408 0.4672539 -0.01961329
v 0.248155 0.5072016 0.01811733
v 0.2481551 0.5072016 -0.01811769
v 0.2686667 0.4950633 -0.01961225
v 0.2686667 0.4950633 0.01961201
v 0.2483159 0.4815115 0.01811638
v 0.1882794 0.4815718 0.1630563
v 0.2038515 0.4673192 0.1765079
v 0.2688408 0.4672539 0.01961099
v 0.1881185 0.5072619 0.1630572
v 0.248155 0.5072016 0.01811733
v 0.2686667 0.4950633 0.01961201
v 0.2036774 0.4951287 0.1765089
v 0.1882794 0.4815718 0.1630563
v 0.1626574 0.4815975 0.1886785
v 0.1761158 0.4673471 0.2042438
v 0.2038515 0.4673192 0.1765079
v 0.1624966 0.5072876 0.1886794
v 0.1881185 0.5072619 0.1630572
v 0.2036774 0.4951287 0.1765089
v 0.1759417 0.4951564 0.2042448
v 0.1626574 0.4815975 0.1886785
v 0.01771573 0.4817431 0.248717
v 0.01921698 0.4675045 0.2692352
v 0.1761158 0.4673471 0.2042438
v 0.01755493 0.5074332 0.2487179
v 0.1624966 0.5072876 0.1886794
v 0.1759417 0.4951564 0.2042448
v 0.01904291 0.495314 0.2692362
v 0.01771573 0.4817431 0.248717
v -0.01851922 0.4817794 0.2487172
v -0.02000721 0.4675439 0.2692355
v 0.01921698 0.4675045 0.2692352
v -0.01868002 0.5074695 0.2487181
v 0.01755493 0.5074332 0.2487179
v 0.01904291 0.495314 0.2692362
v -0.02018128 0.4953534 0.2692364
v -0.01851922 0.4817794 0.2487172
v -0.1634607 0.481925 0.1886808
v -0.1769058 0.4677015 0.2042462
v -0.02000721 0.4675439 0.2692355
v -0.1636215 0.5076151 0.1886817
v -0.01868002 0.5074695 0.2487181
v -0.02018128 0.4953534 0.2692364
v -0.1770799 0.495511 0.2042472
v -0.1634607 0.481925 0.1886808
v -0.1890827 0.4819507 0.1630587
v -0.2046415 0.4677294 0.1765105
v -0.1769058 0.4677015 0.2042462
v -0.1892435 0.5076407 0.1630597
v -0.1636215 0.5076151 0.1886817
v -0.1770799 0.495511 0.2042472
v -0.2048156 0.4955387 0.1765115
v -0.01819762 -0.4384614 -0.2487196
v -0.1631392 -0.4383158 -0.1886831
v -0.2015916 -0.431012 -0.233156
v -0.02248692 -0.4311919 -0.3073433
v -0.1629783 -0.4999634 -0.1886821
v -0.01803681 -0.500109 -0.2487185
v -0.02228821 -0.50737 -0.307342
v -0.2013928 -0.5071901 -0.2331547
v 0.01803743 -0.4384977 -0.2487196
v -0.01819762 -0.4384614 -0.2487196
v -0.02248692 -0.4311919 -0.3073433
v 0.02228883 -0.4312368 -0.3073433
v -0.01803681 -0.500109 -0.2487185
v 0.01819823 -0.5001453 -0.2487185
v 0.02248752 -0.5074149 -0.307342
v -0.02228821 -0.50737 -0.307342
v 0.162979 -0.4386433 -0.1886831
v 0.01803743 -0.4384977 -0.2487196
v 0.02228883 -0.4312368 -0.3073433
v 0.2013935 -0.4314166 -0.233156
v 0.01819823 -0.5001453 -0.2487185
v 0.1631397 -0.5002909 -0.1886821
v 0.2015921 -0.5075947 -0.2331547
v 0.02248752 -0.5074149 -0.307342
v 0.188601 -0.438669 -0.1630611
v 0.162979 -0.4386433 -0.1886831
v 0.2013935 -0.4314166 -0.233156
v 0.2330547 -0.4314484 -0.2014948
v 0.1631397 -0.5002909 -0.1886821
v 0.1887617 -0.5003166 -0.1630601
v 0.2332533 -0.5076265 -0.2014935
v 0.2015921 -0.5075947 -0.2331547
v -0.01851922 0.4817794 -0.2487195
v -0.01835841 0.003680319 -0.2487185
v 0.1626573 0.4815975 -0.1886831
v 0.1628181 0.003498346 -0.1886821
v 0.2483159 0.4815115 -0.01811865
v 0.2484767 0.003412336 -0.01811769
v -0.1634607 0.481925 -0.1886831
v -0.1632999 0.003825873 -0.1886821
v -0.1890827 0.4819507 -0.1630611
v -0.1889219 0.003851563 -0.1630601
v -0.2491194 0.482011 -0.01811865
v -0.2489585 0.003911883 -0.01811769
v -0.2491194 0.482011 0.01811642
v -0.2489585 0.003911883 0.01811737
v -0.1890827 0.4819507 0.1630587
v -0.1889219 0.003851563 0.1630597
v -0.1634607 0.481925 0.1886808
v -0.1632999 0.003825873 0.1886817
v -0.01851922 0.4817794 0.2487172
v -0.01835841 0.003680319 0.2487181
v -0.2696309 0.4677946 -0.01961329
v -0.2698049 0.4956041 -0.01961225
v 0.1626574 0.4815975 0.1886785
v 0.1628182 0.003498346 0.1886794
v -0.1769058 0.4677015 -0.2042486
v -0.1770799 0.495511 -0.2042475
v 0.2483159 0.4815115 0.01811638
v 0.2484766 0.003412336 0.01811733
v 0.1884401 0.003472656 -0.1630601
v 0.01921708 0.4675045 -0.2692378
v 0.1759416 0.4951564 -0.2042475
v 0.1761157 0.4673471 -0.2042486
v 0.2686667 0.4950633 0.01961201
v 0.2688408 0.4672539 0.01961099
v 0.2686667 0.4950633 -0.01961225
v 0.2688408 0.4672539 -0.01961329
v 0.2036774 0.4951287 0.1765089
v 0.2038515 0.4673192 0.1765079
v 0.1759417 0.4951564 0.2042448
v 0.1761158 0.4673471 0.2042438
v 0.01904291 0.495314 0.2692362
v 0.01921698 0.4675045 0.2692352
v -0.02018128 0.4953534 0.2692364
v -0.02000721 0.4675439 0.2692355
v -0.1770799 0.495511 0.2042472
v -0.1769058 0.4677015 0.2042462
v -0.2048156 0.4955387 0.1765115
v -0.2046415 0.4677294 0.1765105
v -0.1892435 0.5076407 0.1630597
v -0.2492801 0.5077012 0.01811737
v -0.2302278 0.507682 0.0167295
v -0.1747901 0.5076263 0.1505689
v -0.2492801 0.5077012 0.01811737
v -0.2492801 0.5077012 -0.01811769
v -0.2302278 0.507682 -0.01672987
v -0.2302278 0.507682 0.0167295
v -0.2492801 0.5077012 -0.01811769
v -0.1892435 0.5076407 -0.1630601
v -0.1747901 0.5076263 -0.1505693
v -0.2302278 0.507682 -0.01672987
v -0.1892435 0.5076407 -0.1630601
v -0.1636215 0.5076151 -0.1886821
v -0.1511308 0.5076026 -0.1742287
v -0.1747901 0.5076263 -0.1505693
v -0.1636215 0.5076151 -0.1886821
v -0.01868002 0.5074695 -0.2487185
v -0.01729218 0.5074681 -0.2296662
v -0.1511308 0.5076026 -0.1742287
v -0.01868002 0.5074695 -0.2487185
v 0.01755501 0.5074332 -0.2487185
v 0.01616717 0.5074345 -0.2296662
v -0.01729218 0.5074681 -0.2296662
v 0.01755501 0.5074332 -0.2487185
v 0.1624965 0.5072876 -0.1886821
v 0.1500058 0.5073001 -0.1742287
v 0.01616717 0.5074345 -0.2296662
v 0.1624965 0.5072876 -0.1886821
v 0.1881185 0.5072619 -0.1630601
v 0.1736651 0.5072764 -0.1505693
v 0.1500058 0.5073001 -0.1742287
v 0.1881185 0.5072619 -0.1630601
v 0.2481551 0.5072016 -0.01811769
v 0.2291028 0.5072207 -0.01672987
v 0.1736651 0.5072764 -0.1505693
v 0.2481551 0.5072016 -0.01811769
v 0.248155 0.5072016 0.01811733
v 0.2291027 0.5072207 0.01672947
v 0.2291028 0.5072207 -0.01672987
v 0.248155 0.5072016 0.01811733
v 0.1881185 0.5072619 0.1630572
v 0.1736652 0.5072764 0.1505667
v 0.2291027 0.5072207 0.01672947
v 0.1881185 0.5072619 0.1630572
v 0.1624966 0.5072876 0.1886794
v 0.1500059 0.5073001 0.1742261
v 0.1736652 0.5072764 0.1505667
v 0.1500059 0.5073001 0.1742261
v 0.01616709 0.5074345 0.2296656
v 0.01488557 0.4679107 0.2120736
v 0.138472 0.4677866 0.160881
v 0.01616709 0.5074345 0.2296656
v -0.01729218 0.5074681 0.2296658
v -0.01601066 0.4679417 0.2120738
v 0.01488557 0.4679107 0.2120736
v -0.01729218 0.5074681 0.2296658
v -0.1511308 0.5076026 0.1742282
v -0.139597 0.4680658 0.1608829
v -0.01601066 0.4679417 0.2120738
v -0.1511308 0.5076026 0.1742282
v -0.1747901 0.5076263 0.1505689
v -0.1614439 0.4680877 0.1390359
v -0.139597 0.4680658 0.1608829
v -0.1747901 0.5076263 0.1505689
v -0.2302278 0.507682 0.0167295
v -0.212635 0.4681392 0.0154489
v -0.1614439 0.4680877 0.1390359
v -0.2302278 0.507682 0.0167295
v -0.2302278 0.507682 -0.01672987
v -0.212635 0.4681392 -0.01544742
v -0.212635 0.4681392 0.0154489
v -0.2302278 0.507682 -0.01672987
v -0.1747901 0.5076263 -0.1505693
v -0.1614439 0.4680877 -0.1390345
v -0.212635 0.4681392 -0.01544742
v -0.1747901 0.5076263 -0.1505693
v -0.1511308 0.5076026 -0.1742287
v -0.139597 0.4680658 -0.1608815
v -0.1614439 0.4680877 -0.1390345
v -0.1890827 0.4819507 0.1630587
v -0.2491194 0.482011 0.01811642
v -0.2696309 0.4677946 0.01961102
v -0.2046415 0.4677294 0.1765105
v -0.2492801 0.5077012 0.01811737
v -0.1892435 0.5076407 0.1630597
v -0.2048156 0.4955387 0.1765115
v -0.2698049 0.4956041 0.01961205
v -0.2491194 0.482011 0.01811642
v -0.2491194 0.482011 -0.01811865
v -0.2696309 0.4677946 -0.01961329
v -0.2696309 0.4677946 0.01961102
v -0.2492801 0.5077012 -0.01811769
v -0.2492801 0.5077012 0.01811737
v -0.2698049 0.4956041 0.01961205
v -0.2698049 0.4956041 -0.01961225
v -0.2491194 0.482011 -0.01811865
v -0.1890827 0.4819507 -0.1630611
v -0.2046415 0.4677294 -0.1765128
v -0.2696309 0.4677946 -0.01961329
v -0.1892435 0.5076407 -0.1630601
v -0.2492801 0.5077012 -0.01811769
v -0.2698049 0.4956041 -0.01961225
v -0.2048156 0.4955387 -0.1765117
v -0.1890827 0.4819507 -0.1630611
v -0.1634607 0.481925 -0.1886831
v -0.1769058 0.4677015 -0.2042486
v -0.2046415 0.4677294 -0.1765128
v -0.1636215 0.5076151 -0.1886821
v -0.1892435 0.5076407 -0.1630601
v -0.2048156 0.4955387 -0.1765117
v -0.1770799 0.495511 -0.2042475
v -0.1634607 0.481925 -0.1886831
v -0.01851922 0.4817794 -0.2487195
v -0.02000721 0.4675439 -0.2692378
v -0.1769058 0.4677015 -0.2042486
v -0.01868002 0.5074695 -0.2487185
v -0.1636215 0.5076151 -0.1886821
v -0.1770799 0.495511 -0.2042475
v -0.02018128 0.4953534 -0.2692367
v -0.01851922 0.4817794 -0.2487195
v 0.01771582 0.4817431 -0.2487195
v 0.01921708 0.4675045 -0.2692378
v -0.02000721 0.4675439 -0.2692378
v 0.01755501 0.5074332 -0.2487185
v -0.01868002 0.5074695 -0.2487185
v -0.02018128 0.4953534 -0.2692367
v 0.019043 0.495314 -0.2692367
v 0.01771582 0.4817431 -0.2487195
v 0.1626573 0.4815975 -0.1886831
v 0.1761157 0.4673471 -0.2042486
v 0.01921708 0.4675045 -0.2692378
v 0.1624965 0.5072876 -0.1886821
v 0.01755501 0.5074332 -0.2487185
v 0.019043 0.495314 -0.2692367
v 0.1759416 0.4951564 -0.2042475
v 0.1626573 0.4815975 -0.1886831
v 0.1882793 0.4815718 -0.1630611
v 0.2038514 0.4673192 -0.1765128
v 0.1761157 0.4673471 -0.2042486
v 0.1881185 0.5072619 -0.1630601
v 0.1624965 0.5072876 -0.1886821
v 0.1759416 0.4951564 -0.2042475
v 0.2036773 0.4951287 -0.1765117
v 0.1624966 0.5072876 0.1886794
v 0.01755493 0.5074332 0.2487179
v 0.01616709 0.5074345 0.2296656
v 0.1500059 0.5073001 0.1742261
v 0.01755493 0.5074332 0.2487179
v -0.01868002 0.5074695 0.2487181
v -0.01729218 0.5074681 0.2296658
v 0.01616709 0.5074345 0.2296656
v -0.01868002 0.5074695 0.2487181
v -0.1636215 0.5076151 0.1886817
v -0.1511308 0.5076026 0.1742282
v -0.01729218 0.5074681 0.2296658
v -0.1636215 0.5076151 0.1886817
v -0.1892435 0.5076407 0.1630597
v -0.1747901 0.5076263 0.1505689
v -0.1511308 0.5076026 0.1742282
v -0.0838867 0.4680099 0.09641831
v -0.09697971 0.468023 0.08332528
v -0.1614439 0.4680877 0.1390359
v -0.139597 0.4680658 0.1608829
v -0.009820668 0.4679355 0.1270973
v -0.0838867 0.4680099 0.09641831
v -0.139597 0.4680658 0.1608829
v -0.01601066 0.4679417 0.2120738
v 0.008695624 0.4679169 0.1270972
v -0.009820668 0.4679355 0.1270973
v -0.01601066 0.4679417 0.2120738
v 0.01488557 0.4679107 0.2120736
v 0.08276173 0.4678425 0.09641714
v 0.008695624 0.4679169 0.1270972
v 0.01488557 0.4679107 0.2120736
v 0.138472 0.4677866 0.160881
v -0.1511308 0.5076026 -0.1742287
v -0.01729218 0.5074681 -0.2296662
v -0.01601066 0.4679417 -0.2120724
v -0.139597 0.4680658 -0.1608815
v -0.01729218 0.5074681 -0.2296662
v 0.01616717 0.5074345 -0.2296662
v 0.01488564 0.4679107 -0.2120724
v -0.01601066 0.4679417 -0.2120724
v 0.01616717 0.5074345 -0.2296662
v 0.1500058 0.5073001 -0.1742287
v 0.138472 0.4677866 -0.1608815
v 0.01488564 0.4679107 -0.2120724
v 0.1500058 0.5073001 -0.1742287
v 0.1736651 0.5072764 -0.1505693
v 0.1603189 0.4677646 -0.1390345
v 0.138472 0.4677866 -0.1608815
v 0.1736651 0.5072764 -0.1505693
v 0.2291028 0.5072207 -0.01672987
v 0.2115099 0.4677133 -0.01544742
v 0.1603189 0.4677646 -0.1390345
v 0.2291028 0.5072207 -0.01672987
v 0.2291027 0.5072207 0.01672947
v 0.2115099 0.4677133 0.01544887
v 0.2115099 0.4677133 -0.01544742
v 0.2291027 0.5072207 0.01672947
v 0.1736652 0.5072764 0.1505667
v 0.160319 0.4677646 0.1390339
v 0.2115099 0.4677133 0.01544887
v 0.1736652 0.5072764 0.1505667
v 0.1500059 0.5073001 0.1742261
v 0.138472 0.4677866 0.160881
v 0.160319 0.4677646 0.1390339
v 0.09585474 0.4678294 0.08332404
v 0.08276173 0.4678425 0.09641714
v 0.138472 0.4677866 0.160881
v 0.160319 0.4677646 0.1390339
v 0.1265337 0.4677986 0.009258791
v 0.09585474 0.4678294 0.08332404
v 0.160319 0.4677646 0.1390339
v 0.2115099 0.4677133 0.01544887
v 0.1265338 0.4677986 -0.00925754
v 0.1265337 0.4677986 0.009258791
v 0.2115099 0.4677133 0.01544887
v 0.2115099 0.4677133 -0.01544742
v 0.0958547 0.4678294 -0.083324
v 0.1265338 0.4677986 -0.00925754
v 0.2115099 0.4677133 -0.01544742
v 0.1603189 0.4677646 -0.1390345
v 0.08276169 0.4678425 -0.09641702
v 0.0958547 0.4678294 -0.083324
v 0.1603189 0.4677646 -0.1390345
v 0.138472 0.4677866 -0.1608815
v 0.008695668 0.4679169 -0.1270961
v 0.08276169 0.4678425 -0.09641702
v 0.138472 0.4677866 -0.1608815
v 0.01488564 0.4679107 -0.2120724
v -0.009820668 0.4679355 -0.1270961
v 0.008695668 0.4679169 -0.1270961
v 0.01488564 0.4679107 -0.2120724
v -0.01601066 0.4679417 -0.2120724
v -0.0838867 0.4680099 -0.09641702
v -0.009820668 0.4679355 -0.1270961
v -0.01601066 0.4679417 -0.2120724
v -0.139597 0.4680658 -0.1608815
v -0.09697971 0.468023 -0.083324
v -0.0838867 0.4680099 -0.09641702
v -0.139597 0.4680658 -0.1608815
v -0.1614439 0.4680877 -0.1390345
v -0.1276588 0.4680538 -0.00925754
v -0.09697971 0.468023 -0.083324
v -0.1614439 0.4680877 -0.1390345
v -0.212635 0.4681392 -0.01544742
v -0.1276588 0.4680538 0.009258809
v -0.1276588 0.4680538 -0.00925754
v -0.212635 0.4681392 -0.01544742
v -0.212635 0.4681392 0.0154489
v -0.09697971 0.468023 0.08332528
v -0.1276588 0.4680538 0.009258809
v -0.212635 0.4681392 0.0154489
v -0.1614439 0.4680877 0.1390359

vn -1.727182E-08 -1.721367E-05 -1
vn 0.707107 0.001831454 -0.7071041
vn 0.707107 0.001831454 -0.7071041
vn 0.9238806 0.0003371111 -0.3826808
vn -1.727182E-08 -1.721367E-05 -1
vn -1.727182E-08 -1.721367E-05 -1
vn 0.9238787 0.0003354436 0.3826853
vn 0.9238787 0.0003354436 0.3826853
vn -0.001004166 -0.9999995 1.0669E-07
vn -0.001004166 -0.9999995 1.0669E-07
vn -0.001004166 -0.9999995 1.0669E-07
vn -0.001004166 -0.9999995 1.0669E-07
vn -0.001004166 -0.9999995 1.0669E-07
vn -0.001004166 -0.9999995 1.0669E-07
vn -0.001004166 -0.9999995 1.0669E-07
vn -0.001004166 -0.9999995 1.0669E-07
vn -0.9238806 -0.0003115912 -0.3826808
vn -0.9238806 -0.0003115912 -0.3826808
vn 5.663537E-06 -3.479353E-05 1
vn 5.663537E-06 -3.479353E-05 1
vn 0.3826821 0.000126746 -0.92388
vn 0.3826828 0.002432229 -0.9238766
vn 0.3826828 0.002432229 -0.9238766
vn 0.3826828 0.002432229 -0.9238766
vn 0.3826821 0.000126746 -0.92388
vn 0.3826821 0.000126746 -0.92388
vn 0.9999804 0.006260527 2.279334E-06
vn 0.9999804 0.006260527 2.279334E-06
vn -0.7071069 -0.001857248 -0.7071042
vn -0.7071069 -0.001857248 -0.7071042
vn 0.3826928 0.0001374506 0.9238756
vn 0.3826928 0.0001374506 0.9238756
vn -0.7071023 -0.004449842 0.7070973
vn -0.7071023 -0.004449842 0.7070973
vn -0.9238805 -0.0003100824 0.382681
vn -0.9238805 -0.0003100824 0.382681
vn -0.7071024 -0.004397178 -0.7070975
vn -0.7071024 -0.004397178 -0.7070975
vn 0.3826927 0.0001304368 0.9238756
vn 0.3826927 0.0001304368 0.9238756
vn 0.382682 0.0001414322 -0.9238801
vn 0.382682 0.0001414322 -0.9238801
vn 0.9999966 0.002606681 1.991561E-06
vn 0.9999966 0.002606681 1.991561E-06
vn -0.9238806 -0.0003349544 -0.3826808
vn -0.9238806 -0.0003349544 -0.3826808
vn 6.003694E-06 1.33171E-05 1
vn 6.003694E-06 1.33171E-05 1
vn -0.3826821 -0.0001409152 0.92388
vn -0.3826821 -0.0001409152 0.92388
vn -0.9999966 -0.002610401 3.327941E-07
vn -0.9999966 -0.002610401 3.327941E-07
vn -0.001004166 -0.9999995 1.0669E-07
vn -0.001004166 -0.9999995 1.0669E-07
vn -0.001004166 -0.9999995 1.0669E-07
vn -0.001004166 -0.9999995 1.0669E-07
vn -0.001004166 -0.9999995 1.0669E-07
vn -0.001004166 -0.9999995 1.0669E-07
vn -0.001004166 -0.9999995 1.0669E-07
vn -0.001004166 -0.9999995 1.0669E-07
vn 0.7071053 0.004402501 0.7070946
vn 0.7071053 0.004402501 0.7070946
vn -0.382682 -0.0001306697 -0.9238802
vn -0.382682 -0.0001306697 -0.9238802
vn -0.9999804 -0.006257312 0
vn -0.9999804 -0.006257312 0
vn -0.3826821 -0.0001269876 0.9238802
vn -0.3826821 -0.0001269876 0.9238802
vn 3.979786E-08 3.96517E-05 -1
vn 3.979786E-08 3.96517E-05 -1
vn 0.9238787 0.0003113882 0.3826853
vn 0.9238787 0.0003113882 0.3826853
vn -0.3826821 -0.0001369269 -0.9238801
vn -0.3826821 -0.0001369269 -0.9238801
vn 0.7071096 0.001853246 0.7071016
vn 0.7071096 0.001853246 0.7071016
vn -0.9238805 -0.0003365897 0.3826809
vn -0.9238805 -0.0003365897 0.3826809
vn -0.7071069 -0.001835394 0.7071043
vn -0.7071069 -0.001835394 0.7071043
vn -0.1183485 0.9917408 -0.04943416
vn -0.1183485 0.9917408 -0.04943416
vn -0.1183485 0.9917408 -0.04943416
vn -0.1183485 0.9917408 -0.04943416
vn -0.120238 -0.9915156 -0.04939202
vn -0.120238 -0.9915156 -0.04939202
vn -0.120238 -0.9915156 -0.04939202
vn -0.120238 -0.9915156 -0.04939202
vn -0.08599724 0.9924901 -0.08699407
vn -0.08599724 0.9924901 -0.08699407
vn -0.08599724 0.9924901 -0.08699407
vn -0.08599724 0.9924901 -0.08699407
vn -0.08793706 -0.9923249 -0.08693888
vn -0.08793706 -0.9923249 -0.08693888
vn -0.08793706 -0.9923249 -0.08693888
vn -0.08793706 -0.9923249 -0.08693888
vn -0.0484271 0.9916748 -0.1193142
vn -0.0484271 0.9916748 -0.1193142
vn -0.0484271 0.9916748 -0.1193142
vn -0.0484271 0.9916748 -0.1193142
vn -0.05040115 -0.9915814 -0.1192725
vn -0.05040115 -0.9915814 -0.1192725
vn -0.05040115 -0.9915814 -0.1192725
vn -0.05040115 -0.9915814 -0.1192725
vn 0.0009948727 0.9924076 -0.1229889
vn 0.0009948727 0.9924076 -0.1229889
vn 0.0009948727 0.9924076 -0.1229889
vn 0.0009948727 0.9924076 -0.1229889
vn -0.0009966859 -0.9924074 -0.1229903
vn -0.0009966859 -0.9924074 -0.1229903
vn -0.0009966859 -0.9924074 -0.1229903
vn -0.0009966859 -0.9924074 -0.1229903
vn 0.05039961 0.9915816 -0.1192717
vn 0.05039961 0.9915816 -0.1192717
vn 0.05039961 0.9915816 -0.1192717
vn 0.05039961 0.9915816 -0.1192717
vn 0.04842576 -0.9916748 -0.1193151
vn 0.04842576 -0.9916748 -0.1193151
vn 0.04842576 -0.9916748 -0.1193151
vn 0.04842576 -0.9916748 -0.1193151
vn 0.08793543 0.992325 -0.08693945
vn 0.08793543 0.992325 -0.08693945
vn 0.08793543 0.992325 -0.08693945
vn 0.08793543 0.992325 -0.08693945
vn 0.08599877 -0.99249 -0.08699316
vn 0.08599877 -0.99249 -0.08699316
vn 0.08599877 -0.99249 -0.08699316
vn 0.08599877 -0.99249 -0.08699316
vn 0.120238 0.9915157 -0.04939136
vn 0.120238 0.9915157 -0.04939136
vn 0.120238 0.9915157 -0.04939136
vn 0.120238 0.9915157 -0.04939136
vn 0.1183492 -0.9917408 -0.04943445
vn 0.1183492 -0.9917408 -0.04943445
vn 0.1183492 -0.9917408 -0.04943445
vn 0.1183492 -0.9917408 -0.04943445
vn 0.1239315 0.9922908 -6.838801E-08
vn 0.1239315 0.9922908 -6.838801E-08
vn 0.1239315 0.9922908 -6.838801E-08
vn 0.1239315 0.9922908 -6.838801E-08
vn 0.1220473 -0.9925243 -2.244942E-08
vn 0.1220473 -0.9925243 -2.244942E-08
vn 0.1220473 -0.9925243 -2.244942E-08
vn 0.1220473 -0.9925243 -2.244942E-08
vn 0.1202379 0.9915157 0.04939132
vn 0.1202379 0.9915157 0.04939132
vn 0.1202379 0.9915157 0.04939132
vn 0.1202379 0.9915157 0.04939132
vn 0.1183495 -0.9917407 0.04943456
vn 0.1183495 -0.9917407 0.04943456
vn 0.1183495 -0.9917407 0.04943456
vn 0.1183495 -0.9917407 0.04943456
vn 0.08793533 0.992325 0.08693936
vn 0.08793533 0.992325 0.08693936
vn 0.08793533 0.992325 0.08693936
vn 0.08793533 0.992325 0.08693936
vn 0.08599914 -0.9924899 0.08699352
vn 0.08599914 -0.9924899 0.08699352
vn 0.08599914 -0.9924899 0.08699352
vn 0.08599914 -0.9924899 0.08699352
vn 0.3826827 0.0009821593 -0.9238793
vn 0.3826827 0.0009821593 -0.9238793
vn 0.9999999 0.000363988 2.467202E-06
vn 0.9999999 0.000363988 2.467202E-06
vn 0.7071075 0.000258995 -0.707106
vn 0.7071075 0.000258995 -0.707106
vn 0.7071075 0.000258995 -0.707106
vn -1.727182E-08 -1.721367E-05 -1
vn 0.7071075 0.0002362825 -0.7071061
vn 0.7071075 0.0002362825 -0.7071061
vn 0.9238658 0.005798616 -0.3826727
vn 0.9238658 0.005798616 -0.3826727
vn -0.3826828 -0.002358571 -0.9238768
vn -0.3826828 -0.002358571 -0.9238768
vn 0.70711 0.000239096 0.7071036
vn 0.70711 0.000239096 0.7071036
vn 0.7071101 0.0002559135 0.7071033
vn 0.7071101 0.0002559135 0.7071033
vn -0.3826826 -0.001014175 -0.9238793
vn -0.3826826 -0.001014175 -0.9238793
vn -0.9238662 -0.005766663 -0.3826723
vn -0.9238662 -0.005766663 -0.3826723
vn 5.840021E-06 1.871988E-06 1
vn 5.840021E-06 1.871988E-06 1
vn 5.795302E-06 -1.885232E-06 1
vn 5.795302E-06 -1.885232E-06 1
vn -0.9238784 -0.002417732 -0.3826787
vn -0.9238784 -0.002417732 -0.3826787
vn -0.7071075 -0.0002365308 0.7071061
vn -0.7071075 -0.0002365308 0.7071061
vn -0.923866 -0.005795125 0.3826724
vn -0.923866 -0.005795125 0.3826724
vn -0.7071072 -0.0002584093 0.7071063
vn -0.7071072 -0.0002584093 0.7071063
vn -0.9238783 -0.002405696 0.3826787
vn -0.9238783 -0.002405696 0.3826787
vn -0.9999999 -0.0003364715 4.316833E-11
vn -0.9999999 -0.0003364715 4.316833E-11
vn -0.3826829 -0.002427134 0.9238766
vn -0.3826829 -0.002427134 0.9238766
vn -0.9999999 -0.0003634426 2.055737E-07
vn -0.9999999 -0.0003634426 2.055737E-07
vn -0.3826826 -0.000985802 0.9238793
vn -0.3826826 -0.000985802 0.9238793
vn -0.7071076 -0.00023938 -0.707106
vn -0.7071076 -0.00023938 -0.707106
vn 0.3826935 0.002363122 0.9238724
vn 0.3826935 0.002363122 0.9238724
vn -0.7071073 -0.0002553574 -0.7071063
vn -0.7071073 -0.0002553574 -0.7071063
vn 0.3826933 0.001010465 0.9238749
vn 0.3826933 0.001010465 0.9238749
vn -5.062144E-08 -2.119391E-06 -1
vn -5.062144E-08 -2.119391E-06 -1
vn 0.923864 0.005770637 0.3826774
vn 0.923864 0.005770637 0.3826774
vn -6.890985E-09 2.426562E-06 -1
vn -6.890985E-09 2.426562E-06 -1
vn 0.9238762 0.002413984 0.3826839
vn 0.9238762 0.002413984 0.3826839
vn 0.9238806 0.0003098564 -0.3826807
vn 0.7071024 0.004454958 -0.7070972
vn 0.7071024 0.004454958 -0.7070972
vn 0.3826821 0.000126746 -0.92388
vn 0.001004069 0.9999995 -1.637343E-07
vn 0.001004069 0.9999995 -1.637343E-07
vn 0.001004069 0.9999995 -1.637343E-07
vn 0.001004069 0.9999995 -1.637343E-07
vn 0.001004069 0.9999995 -1.637343E-07
vn 0.001004069 0.9999995 -1.637343E-07
vn 0.001004069 0.9999995 -1.637343E-07
vn 0.001004069 0.9999995 -1.637343E-07
vn 0.001004069 0.9999995 -1.637343E-07
vn 0.001004069 0.9999995 -1.637343E-07
vn 0.001004069 0.9999995 -1.637343E-07
vn 0.001004069 0.9999995 -1.637343E-07
vn 0.001004069 0.9999995 -1.637343E-07
vn 0.001004069 0.9999995 -1.637343E-07
vn 0.001004069 0.9999995 -1.637343E-07
vn 0.001004069 0.9999995 -1.637343E-07
vn 0.3826827 0.0009821593 -0.9238793
vn 0.3826827 0.0009821593 -0.9238793
vn 0.7071101 0.0002559135 0.7071033
vn 0.7071101 0.0002559135 0.7071033
vn 0.9238781 0.002402142 -0.3826793
vn 0.9238781 0.002402142 -0.3826793
vn -0.7071069 -0.001857248 -0.7071042
vn -0.7071069 -0.001857248 -0.7071042
vn 5.795302E-06 -1.885232E-06 1
vn 5.795302E-06 -1.885232E-06 1
vn -0.9999966 -0.002610401 3.327941E-07
vn -0.9999966 -0.002610401 3.327941E-07
vn -0.7071072 -0.0002584093 0.7071063
vn -0.7071072 -0.0002584093 0.7071063
vn -0.7071069 -0.001835394 0.7071043
vn -0.7071069 -0.001835394 0.7071043
vn -0.9999999 -0.0003634426 2.055737E-07
vn -0.9999999 -0.0003634426 2.055737E-07
vn 6.003694E-06 1.33171E-05 1
vn 6.003694E-06 1.33171E-05 1
vn -0.7071073 -0.0002553574 -0.7071063
vn -0.7071073 -0.0002553574 -0.7071063
vn 0.7071096 0.001853246 0.7071016
vn 0.7071096 0.001853246 0.7071016
vn -6.890985E-09 2.426562E-06 -1
vn -6.890985E-09 2.426562E-06 -1
vn 0.9999966 0.002606681 1.991561E-06
vn 0.9999966 0.002606681 1.991561E-06
vn 0.9238806 0.0003371111 -0.3826808
vn 0.7071075 0.000258995 -0.707106
vn 0.707107 0.001831454 -0.7071041
vn 0.707107 0.001831454 -0.7071041
vn 0.9238787 0.0003354436 0.3826853
vn 0.9238787 0.0003354436 0.3826853
vn 0.9999999 0.000363988 2.467202E-06
vn 0.9999999 0.000363988 2.467202E-06
vn -0.3826826 -0.001014175 -0.9238793
vn -0.3826826 -0.001014175 -0.9238793
vn 0.3826928 0.0001374506 0.9238756
vn 0.3826928 0.0001374506 0.9238756
vn -0.9238784 -0.002417732 -0.3826787
vn -0.9238784 -0.002417732 -0.3826787
vn -0.3826821 -0.0001409152 0.92388
vn -0.3826821 -0.0001409152 0.92388
vn -0.9238783 -0.002405696 0.3826787
vn -0.9238783 -0.002405696 0.3826787
vn -0.9238805 -0.0003365897 0.3826809
vn -0.9238805 -0.0003365897 0.3826809
vn -0.3826826 -0.000985802 0.9238793
vn -0.3826826 -0.000985802 0.9238793
vn -0.9238806 -0.0003349544 -0.3826808
vn -0.9238806 -0.0003349544 -0.3826808
vn 0.3826933 0.001010465 0.9238749
vn 0.3826933 0.001010465 0.9238749
vn -0.3826821 -0.0001369269 -0.9238801
vn -0.3826821 -0.0001369269 -0.9238801
vn 0.9238762 0.002413984 0.3826839
vn 0.9238762 0.002413984 0.3826839
vn 0.382682 0.0001414322 -0.9238801
vn 0.382682 0.0001414322 -0.9238801
vn 0.9238781 0.002402142 -0.3826793
vn 0.9238781 0.002402142 -0.3826793
vn 0.9238806 0.0003371111 -0.3826808
vn 0.9238806 0.0003371111 -0.3826808
vn -0.118348 0.9917409 0.04943372
vn -0.118348 0.9917409 0.04943372
vn -0.118348 0.9917409 0.04943372
vn -0.118348 0.9917409 0.04943372
vn -0.1202394 -0.9915155 0.04939153
vn -0.1202394 -0.9915155 0.04939153
vn -0.1202394 -0.9915155 0.04939153
vn -0.1202394 -0.9915155 0.04939153
vn -0.1220467 0.9925244 -1.364784E-06
vn -0.1220467 0.9925244 -1.364784E-06
vn -0.1220467 0.9925244 -1.364784E-06
vn -0.1220467 0.9925244 -1.364784E-06
vn -0.1239323 -0.9922907 1.209422E-06
vn -0.1239323 -0.9922907 1.209422E-06
vn -0.1239323 -0.9922907 1.209422E-06
vn -0.1239323 -0.9922907 1.209422E-06
vn -0.923866 -0.005795125 0.3826724
vn -0.923866 -0.005795125 0.3826724
vn -0.9999804 -0.006257312 0
vn -0.9999804 -0.006257312 0
vn 5.840021E-06 1.871988E-06 1
vn 5.840021E-06 1.871988E-06 1
vn -0.7071024 -0.004397178 -0.7070975
vn -0.7071024 -0.004397178 -0.7070975
vn 0.70711 0.000239096 0.7071036
vn 0.70711 0.000239096 0.7071036
vn 3.979786E-08 3.96517E-05 -1
vn 3.979786E-08 3.96517E-05 -1
vn 0.9999999 0.0003362576 2.467396E-06
vn 0.9999999 0.0003362576 2.467396E-06
vn 0.9238806 0.0003098564 -0.3826807
vn 0.9238806 0.0003098564 -0.3826807
vn -0.5447235 -0.8077864 0.2252941
vn -0.5447235 -0.8077864 0.2252941
vn -0.5447235 -0.8077864 0.2252941
vn -0.5447235 -0.8077864 0.2252941
vn 0.4878811 0.8492798 -0.201732
vn 0.4878811 0.8492798 -0.201732
vn 0.4878811 0.8492798 -0.201732
vn 0.4878811 0.8492798 -0.201732
vn -0.5705093 -0.8212911 -1.351921E-06
vn -0.5705093 -0.8212911 -1.351921E-06
vn -0.5705093 -0.8212911 -1.351921E-06
vn -0.5705093 -0.8212911 -1.351921E-06
vn 0.5092795 0.8606011 1.106258E-06
vn 0.5092795 0.8606011 1.106258E-06
vn 0.5092795 0.8606011 1.106258E-06
vn 0.5092795 0.8606011 1.106258E-06
vn -0.5447232 -0.8077857 -0.2252971
vn -0.5447232 -0.8077857 -0.2252971
vn -0.5447232 -0.8077857 -0.2252971
vn -0.5447232 -0.8077857 -0.2252971
vn 0.48788 0.8492799 0.2017344
vn 0.48788 0.8492799 0.2017344
vn 0.48788 0.8492799 0.2017344
vn 0.48788 0.8492799 0.2017344
vn -0.4037373 -0.8213773 -0.4029089
vn -0.4037373 -0.8213773 -0.4029089
vn -0.4037373 -0.8213773 -0.4029089
vn -0.4037373 -0.8213773 -0.4029089
vn 0.3603922 0.8607315 0.3595256
vn 0.3603922 0.8607315 0.3595256
vn 0.3603922 0.8607315 0.3595256
vn 0.3603922 0.8607315 0.3595256
vn -0.2261981 -0.8079425 -0.5441172
vn -0.2261981 -0.8079425 -0.5441172
vn -0.2261981 -0.8079425 -0.5441172
vn -0.2261981 -0.8079425 -0.5441172
vn 0.2026148 0.8495284 0.4870818
vn 0.2026148 0.8495284 0.4870818
vn 0.2026148 0.8495284 0.4870818
vn 0.2026148 0.8495284 0.4870818
vn -0.0008282156 -0.8215898 -0.5700784
vn -0.0008282156 -0.8215898 -0.5700784
vn -0.0008282156 -0.8215898 -0.5700784
vn -0.0008282156 -0.8215898 -0.5700784
vn 0.0008665869 0.8610507 0.5085184
vn 0.0008665869 0.8610507 0.5085184
vn 0.0008665869 0.8610507 0.5085184
vn 0.0008665869 0.8610507 0.5085184
vn 0.2246894 -0.8081661 -0.5444099
vn 0.2246894 -0.8081661 -0.5444099
vn 0.2246894 -0.8081661 -0.5444099
vn 0.2246894 -0.8081661 -0.5444099
vn -0.2009333 0.8498836 0.4871588
vn -0.2009333 0.8498836 0.4871588
vn -0.2009333 0.8498836 0.4871588
vn -0.2009333 0.8498836 0.4871588
vn 0.4024764 -0.8218035 -0.4033011
vn 0.4024764 -0.8218035 -0.4033011
vn 0.4024764 -0.8218035 -0.4033011
vn 0.4024764 -0.8218035 -0.4033011
vn -0.3587632 0.8613703 0.359625
vn -0.3587632 0.8613703 0.359625
vn -0.3587632 0.8613703 0.359625
vn -0.3587632 0.8613703 0.359625
vn 0.05039952 0.9915817 0.1192716
vn 0.05039952 0.9915817 0.1192716
vn 0.05039952 0.9915817 0.1192716
vn 0.05039952 0.9915817 0.1192716
vn 0.04842603 -0.9916747 0.1193157
vn 0.04842603 -0.9916747 0.1193157
vn 0.04842603 -0.9916747 0.1193157
vn 0.04842603 -0.9916747 0.1193157
vn 0.0009955943 0.9924076 0.1229886
vn 0.0009955943 0.9924076 0.1229886
vn 0.0009955943 0.9924076 0.1229886
vn 0.0009955943 0.9924076 0.1229886
vn -0.0009959595 -0.9924073 0.1229909
vn -0.0009959595 -0.9924073 0.1229909
vn -0.0009959595 -0.9924073 0.1229909
vn -0.0009959595 -0.9924073 0.1229909
vn -0.04842542 0.9916749 0.119314
vn -0.04842542 0.9916749 0.119314
vn -0.04842542 0.9916749 0.119314
vn -0.04842542 0.9916749 0.119314
vn -0.05039982 -0.9915814 0.1192731
vn -0.05039982 -0.9915814 0.1192731
vn -0.05039982 -0.9915814 0.1192731
vn -0.05039982 -0.9915814 0.1192731
vn -0.08599678 0.9924902 0.08699324
vn -0.08599678 0.9924902 0.08699324
vn -0.08599678 0.9924902 0.08699324
vn -0.08599678 0.9924902 0.08699324
vn -0.08793656 -0.9923249 0.08693901
vn -0.08793656 -0.9923249 0.08693901
vn -0.08793656 -0.9923249 0.08693901
vn -0.08793656 -0.9923249 0.08693901
vn -5.062144E-08 -2.119391E-06 -1
vn -5.062144E-08 -2.119391E-06 -1
vn 0.7071075 0.0002362825 -0.7071061
vn 0.7071075 0.0002362825 -0.7071061
vn 0.9999999 0.0003362576 2.467396E-06
vn 0.9999999 0.0003362576 2.467396E-06
vn -0.382682 -0.0001306697 -0.9238802
vn -0.382682 -0.0001306697 -0.9238802
vn -0.7071076 -0.00023938 -0.707106
vn -0.7071076 -0.00023938 -0.707106
vn -0.9238806 -0.0003115912 -0.3826808
vn -0.9238806 -0.0003115912 -0.3826808
vn -0.9999999 -0.0003364715 4.316833E-11
vn -0.9999999 -0.0003364715 4.316833E-11
vn -0.9238805 -0.0003100824 0.382681
vn -0.9238805 -0.0003100824 0.382681
vn -0.7071075 -0.0002365308 0.7071061
vn -0.7071075 -0.0002365308 0.7071061
vn -0.3826821 -0.0001269876 0.9238802
vn -0.3826821 -0.0001269876 0.9238802
vn -0.9238662 -0.005766663 -0.3826723
vn -0.9238662 -0.005766663 -0.3826723
vn 0.3826927 0.0001304368 0.9238756
vn 0.3826927 0.0001304368 0.9238756
vn -0.3826828 -0.002358571 -0.9238768
vn -0.3826828 -0.002358571 -0.9238768
vn 0.9238787 0.0003113882 0.3826853
vn 0.9238787 0.0003113882 0.3826853
vn 0.9238806 0.0003098564 -0.3826807
vn 0.3826828 0.002432229 -0.9238766
vn 0.7071024 0.004454958 -0.7070972
vn 0.7071024 0.004454958 -0.7070972
vn 0.9999804 0.006260527 2.279334E-06
vn 0.9999804 0.006260527 2.279334E-06
vn 0.9238658 0.005798616 -0.3826727
vn 0.9238658 0.005798616 -0.3826727
vn 0.923864 0.005770637 0.3826774
vn 0.923864 0.005770637 0.3826774
vn 0.7071053 0.004402501 0.7070946
vn 0.7071053 0.004402501 0.7070946
vn 0.3826935 0.002363122 0.9238724
vn 0.3826935 0.002363122 0.9238724
vn 5.663537E-06 -3.479353E-05 1
vn 5.663537E-06 -3.479353E-05 1
vn -0.3826829 -0.002427134 0.9238766
vn -0.3826829 -0.002427134 0.9238766
vn -0.7071023 -0.004449842 0.7070973
vn -0.7071023 -0.004449842 0.7070973
vn 0.001003641 0.9999995 7.712767E-07
vn 0.001003641 0.9999995 7.712767E-07
vn 0.001003641 0.9999995 7.712767E-07
vn 0.001003641 0.9999995 7.712767E-07
vn 0.001007367 0.9999995 0
vn 0.001007367 0.9999995 0
vn 0.001007367 0.9999995 0
vn 0.001007367 0.9999995 0
vn 0.001003641 0.9999995 -7.712771E-07
vn 0.001003641 0.9999995 -7.712771E-07
vn 0.001003641 0.9999995 -7.712771E-07
vn 0.001003641 0.9999995 -7.712771E-07
vn 0.001000672 0.9999995 -7.751785E-07
vn 0.001000672 0.9999995 -7.751785E-07
vn 0.001000672 0.9999995 -7.751785E-07
vn 0.001000672 0.9999995 -7.751785E-07
vn 0.001004532 0.9999995 1.81294E-07
vn 0.001004532 0.9999995 1.81294E-07
vn 0.001004532 0.9999995 1.81294E-07
vn 0.001004532 0.9999995 1.81294E-07
vn 0.001004038 0.9999995 3.128562E-06
vn 0.001004038 0.9999995 3.128562E-06
vn 0.001004038 0.9999995 3.128562E-06
vn 0.001004038 0.9999995 3.128562E-06
vn 0.001002909 0.9999995 2.704488E-06
vn 0.001002909 0.9999995 2.704488E-06
vn 0.001002909 0.9999995 2.704488E-06
vn 0.001002909 0.9999995 2.704488E-06
vn 0.001004094 0.9999995 -2.27504E-07
vn 0.001004094 0.9999995 -2.27504E-07
vn 0.001004094 0.9999995 -2.27504E-07
vn 0.001004094 0.9999995 -2.27504E-07
vn 0.001006527 0.9999995 -8.515088E-07
vn 0.001006527 0.9999995 -8.515088E-07
vn 0.001006527 0.9999995 -8.515088E-07
vn 0.001006527 0.9999995 -8.515088E-07
vn 0.001007367 0.9999995 1.938442E-09
vn 0.001007367 0.9999995 1.938442E-09
vn 0.001007367 0.9999995 1.938442E-09
vn 0.001007367 0.9999995 1.938442E-09
vn 0.001006528 0.9999995 8.508077E-07
vn 0.001006528 0.9999995 8.508077E-07
vn 0.001006528 0.9999995 8.508077E-07
vn 0.001006528 0.9999995 8.508077E-07
vn 0.001004094 0.9999995 2.270748E-07
vn 0.001004094 0.9999995 2.270748E-07
vn 0.001004094 0.9999995 2.270748E-07
vn 0.001004094 0.9999995 2.270748E-07
vn -0.3520373 0.3901093 -0.850814
vn -0.3520373 0.3901093 -0.850814
vn -0.3520373 0.3901093 -0.850814
vn -0.3520373 0.3901093 -0.850814
vn 0.0004037539 0.4066255 -0.9135948
vn 0.0004037539 0.4066255 -0.9135948
vn 0.0004037539 0.4066255 -0.9135948
vn 0.0004037539 0.4066255 -0.9135948
vn 0.3527131 0.3900031 -0.8505828
vn 0.3527131 0.3900031 -0.8505828
vn 0.3527131 0.3900031 -0.8505828
vn 0.3527131 0.3900031 -0.8505828
vn 0.6462455 0.4065229 -0.6458374
vn 0.6462455 0.4065229 -0.6458374
vn 0.6462455 0.4065229 -0.6458374
vn 0.6462455 0.4065229 -0.6458374
vn 0.8508054 0.3899358 -0.3522502
vn 0.8508054 0.3899358 -0.3522502
vn 0.8508054 0.3899358 -0.3522502
vn 0.8508054 0.3899358 -0.3522502
vn 0.9136549 0.4064907 0
vn 0.9136549 0.4064907 0
vn 0.9136549 0.4064907 0
vn 0.9136549 0.4064907 0
vn 0.8508 0.3899499 0.3522478
vn 0.8508 0.3899499 0.3522478
vn 0.8508 0.3899499 0.3522478
vn 0.8508 0.3899499 0.3522478
vn 0.6462374 0.4065484 0.6458294
vn 0.6462374 0.4065484 0.6458294
vn 0.6462374 0.4065484 0.6458294
vn 0.6462374 0.4065484 0.6458294
vn 0.5438039 -0.8083245 -0.2255856
vn 0.5438039 -0.8083245 -0.2255856
vn 0.5438039 -0.8083245 -0.2255856
vn 0.5438039 -0.8083245 -0.2255856
vn -0.4863602 0.8501333 0.2018097
vn -0.4863602 0.8501333 0.2018097
vn -0.4863602 0.8501333 0.2018097
vn -0.4863602 0.8501333 0.2018097
vn 0.5696454 -0.8218906 0
vn 0.5696454 -0.8218906 0
vn 0.5696454 -0.8218906 0
vn 0.5696454 -0.8218906 0
vn -0.5077583 0.8614995 0
vn -0.5077583 0.8614995 0
vn -0.5077583 0.8614995 0
vn -0.5077583 0.8614995 0
vn 0.5438037 -0.8083247 0.2255854
vn 0.5438037 -0.8083247 0.2255854
vn 0.5438037 -0.8083247 0.2255854
vn 0.5438037 -0.8083247 0.2255854
vn -0.4863611 0.8501326 -0.20181
vn -0.4863611 0.8501326 -0.20181
vn -0.4863611 0.8501326 -0.20181
vn -0.4863611 0.8501326 -0.20181
vn 0.4024761 -0.8218038 0.4033008
vn 0.4024761 -0.8218038 0.4033008
vn 0.4024761 -0.8218038 0.4033008
vn 0.4024761 -0.8218038 0.4033008
vn -0.3587644 0.8613693 -0.3596263
vn -0.3587644 0.8613693 -0.3596263
vn -0.3587644 0.8613693 -0.3596263
vn -0.3587644 0.8613693 -0.3596263
vn 0.2246892 -0.8081666 0.5444094
vn 0.2246892 -0.8081666 0.5444094
vn 0.2246892 -0.8081666 0.5444094
vn 0.2246892 -0.8081666 0.5444094
vn -0.2009341 0.8498822 -0.4871609
vn -0.2009341 0.8498822 -0.4871609
vn -0.2009341 0.8498822 -0.4871609
vn -0.2009341 0.8498822 -0.4871609
vn -0.0008248369 -0.8215904 0.5700776
vn -0.0008248369 -0.8215904 0.5700776
vn -0.0008248369 -0.8215904 0.5700776
vn -0.0008248369 -0.8215904 0.5700776
vn 0.0008637718 0.8610494 -0.5085206
vn 0.0008637718 0.8610494 -0.5085206
vn 0.0008637718 0.8610494 -0.5085206
vn 0.0008637718 0.8610494 -0.5085206
vn -0.2261909 -0.8079442 0.5441175
vn -0.2261909 -0.8079442 0.5441175
vn -0.2261909 -0.8079442 0.5441175
vn -0.2261909 -0.8079442 0.5441175
vn 0.2026094 0.849528 -0.4870848
vn 0.2026094 0.849528 -0.4870848
vn 0.2026094 0.849528 -0.4870848
vn 0.2026094 0.849528 -0.4870848
vn -0.4037338 -0.8213792 0.4029083
vn -0.4037338 -0.8213792 0.4029083
vn -0.4037338 -0.8213792 0.4029083
vn -0.4037338 -0.8213792 0.4029083
vn 0.3603903 0.860732 -0.3595266
vn 0.3603903 0.860732 -0.3595266
vn 0.3603903 0.860732 -0.3595266
vn 0.3603903 0.860732 -0.3595266
vn 0.001002908 0.9999995 -2.704205E-06
vn 0.001002908 0.9999995 -2.704205E-06
vn 0.001002908 0.9999995 -2.704205E-06
vn 0.001002908 0.9999995 -2.704205E-06
vn 0.00100404 0.9999995 -3.128315E-06
vn 0.00100404 0.9999995 -3.128315E-06
vn 0.00100404 0.9999995 -3.128315E-06
vn 0.00100404 0.9999995 -3.128315E-06
vn 0.001004532 0.9999995 -1.812937E-07
vn 0.001004532 0.9999995 -1.812937E-07
vn 0.001004532 0.9999995 -1.812937E-07
vn 0.001004532 0.9999995 -1.812937E-07
vn 0.001000672 0.9999995 7.751772E-07
vn 0.001000672 0.9999995 7.751772E-07
vn 0.001000672 0.9999995 7.751772E-07
vn 0.001000672 0.9999995 7.751772E-07
vn 0.001002374 0.9999995 -1.001474E-06
vn 0.001002374 0.9999995 -1.001474E-06
vn 0.001002374 0.9999995 -1.001474E-06
vn 0.001002374 0.9999995 -1.001474E-06
vn 0.00100408 0.9999995 2.999618E-07
vn 0.00100408 0.9999995 2.999618E-07
vn 0.00100408 0.9999995 2.999618E-07
vn 0.00100408 0.9999995 2.999618E-07
vn 0.001004819 0.9999995 3.509601E-07
vn 0.001004819 0.9999995 3.509601E-07
vn 0.001004819 0.9999995 3.509601E-07
vn 0.001004819 0.9999995 3.509601E-07
vn 0.001004361 0.9999995 3.81467E-07
vn 0.001004361 0.9999995 3.81467E-07
vn 0.001004361 0.9999995 3.81467E-07
vn 0.001004361 0.9999995 3.81467E-07
vn 0.3527074 0.3900372 0.8505695
vn 0.3527074 0.3900372 0.8505695
vn 0.3527074 0.3900372 0.8505695
vn 0.3527074 0.3900372 0.8505695
vn 0.0004086545 0.4066616 0.9135787
vn 0.0004086545 0.4066616 0.9135787
vn 0.0004086545 0.4066616 0.9135787
vn 0.0004086545 0.4066616 0.9135787
vn -0.3520213 0.3901449 0.8508043
vn -0.3520213 0.3901449 0.8508043
vn -0.3520213 0.3901449 0.8508043
vn -0.3520213 0.3901449 0.8508043
vn -0.6457621 0.4067631 0.6461695
vn -0.6457621 0.4067631 0.6461695
vn -0.6457621 0.4067631 0.6461695
vn -0.6457621 0.4067631 0.6461695
vn -0.8505836 0.3902097 0.3524826
vn -0.8505836 0.3902097 0.3524826
vn -0.8505836 0.3902097 0.3524826
vn -0.8505836 0.3902097 0.3524826
vn -0.9135201 0.4067937 -1.692161E-06
vn -0.9135201 0.4067937 -1.692161E-06
vn -0.9135201 0.4067937 -1.692161E-06
vn -0.9135201 0.4067937 -1.692161E-06
vn -0.8505875 0.390195 -0.3524894
vn -0.8505875 0.390195 -0.3524894
vn -0.8505875 0.390195 -0.3524894
vn -0.8505875 0.390195 -0.3524894
vn -0.6457729 0.4067355 -0.6461762
vn -0.6457729 0.4067355 -0.6461762
vn -0.6457729 0.4067355 -0.6461762
vn -0.6457729 0.4067355 -0.6461762
vn 0.001003971 0.9999995 8.923707E-07
vn 0.001003971 0.9999995 8.923707E-07
vn 0.001003971 0.9999995 8.923707E-07
vn 0.001003971 0.9999995 8.923707E-07
vn 0.0010046 0.9999995 2.618072E-07
vn 0.0010046 0.9999995 2.618072E-07
vn 0.0010046 0.9999995 2.618072E-07
vn 0.0010046 0.9999995 2.618072E-07
vn 0.001004444 0.9999995 1.817437E-09
vn 0.001004444 0.9999995 1.817437E-09
vn 0.001004444 0.9999995 1.817437E-09
vn 0.001004444 0.9999995 1.817437E-09
vn 0.0010046 0.9999995 -2.627082E-07
vn 0.0010046 0.9999995 -2.627082E-07
vn 0.0010046 0.9999995 -2.627082E-07
vn 0.0010046 0.9999995 -2.627082E-07
vn 0.001003971 0.9999995 -8.926178E-07
vn 0.001003971 0.9999995 -8.926178E-07
vn 0.001003971 0.9999995 -8.926178E-07
vn 0.001003971 0.9999995 -8.926178E-07
vn 0.001004362 0.9999995 -3.810499E-07
vn 0.001004362 0.9999995 -3.810499E-07
vn 0.001004362 0.9999995 -3.810499E-07
vn 0.001004362 0.9999995 -3.810499E-07
vn 0.001004817 0.9999995 -3.507903E-07
vn 0.001004817 0.9999995 -3.507903E-07
vn 0.001004817 0.9999995 -3.507903E-07
vn 0.001004817 0.9999995 -3.507903E-07
vn 0.00100408 0.9999995 -2.999624E-07
vn 0.00100408 0.9999995 -2.999624E-07
vn 0.00100408 0.9999995 -2.999624E-07
vn 0.00100408 0.9999995 -2.999624E-07
vn 0.001002374 0.9999995 1.001475E-06
vn 0.001002374 0.9999995 1.001475E-06
vn 0.001002374 0.9999995 1.001475E-06
vn 0.001002374 0.9999995 1.001475E-06
vn 0.001004132 0.9999995 -5.339597E-07
vn 0.001004132 0.9999995 -5.339597E-07
vn 0.001004132 0.9999995 -5.339597E-07
vn 0.001004132 0.9999995 -5.339597E-07
vn 0.001004444 0.9999995 0
vn 0.001004444 0.9999995 0
vn 0.001004444 0.9999995 0
vn 0.001004444 0.9999995 0
vn 0.001004132 0.9999995 5.339593E-07
vn 0.001004132 0.9999995 5.339593E-07
vn 0.001004132 0.9999995 5.339593E-07
vn 0.001004132 0.9999995 5.339593E-07

vt -0.02228883 -0.4312368
vt 0.2331547 -0.5075947
vt 0.233156 -0.4314166
vt 0.01811866 -0.4387293
vt 0.02228821 -0.50737
vt 0.02248692 -0.4311919
vt -0.1630564 -0.438669
vt -0.1630572 0.003472656
vt 0.1629783 0.1886821
vt 0.1886003 0.1630601
vt 0.2486369 0.01811769
vt 0.2486369 -0.01811737
vt 0.1886003 -0.1630597
vt 0.1629783 -0.1886817
vt 0.01803681 -0.2487181
vt -0.01819814 -0.2487179
vt -0.1630601 0.003851563
vt -0.1630611 0.4819507
vt 0.01921698 0.4675045
vt 0.01904291 0.495314
vt -0.01771582 0.4817431
vt -0.1761157 0.4673471
vt -0.1759416 0.4951564
vt -0.019043 0.495314
vt -0.1628181 0.003498346
vt -0.1626573 0.4815975
vt 0.01961329 0.4672539
vt 0.01961225 0.4950633
vt -0.2014935 -0.5071584
vt -0.2014948 -0.4309802
vt 0.01803734 -0.4384977
vt 0.01787653 0.0036439
vt 0.2042472 0.495511
vt 0.2042462 0.4677015
vt 0.01811642 0.482011
vt 0.01811737 0.003911883
vt -0.1765117 0.4955387
vt -0.1765128 0.4677294
vt 0.01771573 0.4817431
vt 0.01787653 0.0036439
vt -0.1628181 0.003498346
vt -0.162979 -0.4386433
vt 0.02238905 -0.431523
vt 0.02238786 -0.5077012
vt -0.1630601 0.003851563
vt -0.1630611 -0.4382901
vt 0.02228872 -0.4312368
vt 0.02248742 -0.5074149
vt -0.1632999 0.003825873
vt -0.1631392 -0.4383158
vt 0.02238673 -0.4309057
vt 0.0223879 -0.5070838
vt 0.01803681 0.2487185
vt -0.01819823 0.2487185
vt -0.1631397 0.1886821
vt -0.1887617 0.1630601
vt -0.2487983 0.01811769
vt -0.2487982 -0.01811733
vt -0.1887618 -0.1630572
vt -0.1631398 -0.1886794
vt -0.1765089 0.4951287
vt -0.1765079 0.4673192
vt 0.01851922 0.4817794
vt 0.01835841 0.003680319
vt 0.01961205 0.4956041
vt 0.01961102 0.4677946
vt -0.1634607 0.481925
vt -0.1632999 0.003825873
vt 0.02018128 0.4953534
vt 0.02000721 0.4675439
vt -0.1630563 0.4815718
vt -0.1630572 0.003472656
vt 0.01835841 0.003680319
vt 0.01819762 -0.4384614
vt -0.2014894 -0.4314485
vt -0.2014905 -0.5076265
vt 0.01811737 0.003911883
vt 0.01811642 -0.4382298
vt 0.2331536 -0.431012
vt 0.2331547 -0.5071901
vt -0.188601 0.1630564
vt -0.2486375 0.01811638
vt -0.3072421 0.02238669
vt -0.2330548 0.2014894
vt -0.2487982 -0.01811733
vt -0.1887618 -0.1630572
vt -0.2332533 -0.2014905
vt -0.3074407 -0.02238785
vt -0.1629791 0.1886786
vt -0.188601 0.1630564
vt -0.2330548 0.2014894
vt -0.2013936 0.2331509
vt -0.1887618 -0.1630572
vt -0.1631398 -0.1886794
vt -0.2015922 -0.2331519
vt -0.2332533 -0.2014905
vt -0.01803734 0.2487171
vt -0.1629791 0.1886786
vt -0.2013936 0.2331509
vt -0.02228872 0.3073406
vt -0.1631398 -0.1886794
vt -0.01819814 -0.2487179
vt -0.02248742 -0.3073416
vt -0.2015922 -0.2331519
vt 0.01819762 0.2487173
vt -0.01803734 0.2487171
vt -0.02228872 0.3073406
vt 0.02248692 0.3073409
vt -0.01819814 -0.2487179
vt 0.01803681 -0.2487181
vt 0.02228821 -0.3073419
vt -0.02248742 -0.3073416
vt 0.1631392 0.1886808
vt 0.01819762 0.2487173
vt 0.02248692 0.3073409
vt 0.2015916 0.2331536
vt 0.01803681 -0.2487181
vt 0.1629783 -0.1886817
vt 0.2013928 -0.2331547
vt 0.02228821 -0.3073419
vt 0.1887612 0.1630588
vt 0.1631392 0.1886808
vt 0.2015916 0.2331536
vt 0.2332528 0.2014924
vt 0.1629783 -0.1886817
vt 0.1886003 -0.1630597
vt 0.233054 -0.2014935
vt 0.2013928 -0.2331547
vt 0.2487978 0.01811642
vt 0.1887612 0.1630588
vt 0.2332528 0.2014924
vt 0.3074402 0.02238673
vt 0.1886003 -0.1630597
vt 0.2486369 -0.01811737
vt 0.3072413 -0.0223879
vt 0.233054 -0.2014935
vt 0.2487978 -0.01811866
vt 0.2487978 0.01811642
vt 0.3074402 0.02238673
vt 0.3074402 -0.02238905
vt 0.2486369 -0.01811737
vt 0.2486369 0.01811769
vt 0.3072413 0.02238786
vt 0.3072413 -0.0223879
vt 0.1887612 -0.1630611
vt 0.2487978 -0.01811866
vt 0.3074402 -0.02238905
vt 0.2332528 -0.2014948
vt 0.2486369 0.01811769
vt 0.1886003 0.1630601
vt 0.233054 0.2014935
vt 0.3072413 0.02238786
vt 0.1631392 -0.1886831
vt 0.1887612 -0.1630611
vt 0.2332528 -0.2014948
vt 0.2015916 -0.233156
vt 0.1886003 0.1630601
vt 0.1629783 0.1886821
vt 0.2013928 0.2331547
vt 0.233054 0.2014935
vt -0.02248752 -0.5074149
vt -0.02228883 -0.4312368
vt -0.01811638 -0.4387293
vt -0.01811733 0.003412336
vt 0.1630601 0.003472656
vt 0.1886821 0.003498346
vt 0.1886831 -0.4386433
vt -0.02248752 -0.5074149
vt 0.1630601 0.003472656
vt 0.1630611 0.4815718
vt 0.0003863605 0.0003842461
vt 2.875549E-08 0.1640757
vt 0.02018128 0.4953534
vt 0.02000721 0.4675439
vt -0.1630563 0.4815718
vt -0.1630572 0.003472656
vt -0.1630572 0.003472656
vt -0.1630564 -0.438669
vt 0.02248692 -0.4311919
vt 0.02228821 -0.50737
vt -0.1765117 0.4955387
vt -0.1765128 0.4677294
vt 0.01771573 0.4817431
vt 0.01787653 0.0036439
vt 0.01787653 0.0036439
vt 0.01803734 -0.4384977
vt -0.2014948 -0.4309802
vt -0.2014935 -0.5071584
vt 0.1630597 0.003851563
vt 0.1630587 0.4819507
vt 0.1765105 0.4677294
vt 0.1765115 0.4955387
vt 0.1886817 0.003825873
vt 0.1886808 -0.4383158
vt 0.02238673 -0.4309057
vt 0.0223879 -0.5070838
vt -0.01811769 0.003911883
vt -0.01811865 0.482011
vt -0.02000721 0.4675439
vt -0.02018128 0.4953534
vt 0.01811737 0.003911883
vt 0.01811642 -0.4382298
vt -0.2015916 -0.431012
vt -0.2013928 -0.5071901
vt -0.1886821 0.003825873
vt -0.1886831 0.481925
vt 0.1761158 0.4673471
vt 0.1759417 0.4951564
vt -0.1630601 0.003851563
vt -0.1630611 -0.4382901
vt 0.02228872 -0.4312368
vt 0.02248742 -0.5074149
vt -0.01787662 0.0036439
vt -0.01771582 0.4817431
vt -0.01961099 0.4672539
vt -0.01961201 0.4950633
vt 0.01835841 0.003680319
vt 0.01819762 -0.4384614
vt -0.2014894 -0.4314485
vt -0.2014905 -0.5076265
vt 0.1630611 0.4815718
vt 0.1765128 0.4673192
vt 0.1765117 0.4951287
vt -0.01787662 0.0036439
vt -0.08276173 0.09641714
vt -0.09585474 0.08332404
vt -0.1265337 0.009258791
vt -0.1265338 -0.00925754
vt -0.0958547 -0.083324
vt -0.08276169 -0.09641702
vt -0.008695668 -0.1270961
vt 0.009820668 -0.1270961
vt 0.0838867 -0.09641702
vt 0.09697971 -0.083324
vt 0.1276588 -0.00925754
vt 0.1276588 0.009258809
vt 0.09697971 0.08332528
vt 0.0838867 0.09641831
vt 0.009820668 0.1270973
vt -0.008695624 0.1270972
vt -0.2013935 -0.4314166
vt -0.2015921 -0.5075947
vt -0.1886786 -0.4386433
vt -0.1886794 0.003498346
vt 0.02238905 -0.431523
vt 0.02238786 -0.5077012
vt -0.233156 -0.431012
vt -0.2331547 -0.5071901
vt -0.01819762 -0.4384614
vt -0.01835841 0.003680319
vt -0.02238905 -0.4309057
vt -0.02238786 -0.5070838
vt 0.1630588 -0.4382901
vt 0.1630597 0.003851563
vt 0.2014924 -0.4309802
vt 0.2014935 -0.5071584
vt -0.01811866 -0.4382298
vt -0.01811769 0.003911883
vt -0.02248692 -0.4311919
vt -0.02228821 -0.50737
vt -0.1886831 -0.4383158
vt -0.1886821 0.003825873
vt -0.2331509 -0.4314166
vt -0.2331519 -0.5075947
vt -0.01803743 -0.4384977
vt -0.01787662 0.0036439
vt -0.02238669 -0.4315229
vt -0.02238785 -0.507701
vt 0.01811769 0.003412336
vt 0.1630611 -0.438669
vt 0.2014935 -0.5076265
vt 0.2014948 -0.4314484
vt -0.01811733 0.003412336
vt -0.01811638 -0.4387293
vt 0.01811769 0.003412336
vt 0.01811866 -0.4387293
vt 0.2013928 -0.5071901
vt 0.2015916 -0.431012
vt 0.1628182 0.003498346
vt 0.1629791 -0.4386433
vt -0.02238786 -0.5070838
vt -0.02238905 -0.4309057
vt -0.01835841 0.003680319
vt -0.01819762 -0.4384614
vt 0.2014935 -0.5071584
vt 0.2014924 -0.4309802
vt 0.1630597 0.003851563
vt 0.1630588 -0.4382901
vt -0.02228821 -0.50737
vt -0.02248692 -0.4311919
vt -0.01811769 0.003911883
vt -0.01811866 -0.4382298
vt 0.2015922 -0.5075947
vt 0.2013936 -0.4314166
vt 0.1632999 0.003825873
vt 0.1631392 -0.4383158
vt -0.02238785 -0.507701
vt -0.02238669 -0.4315229
vt -0.01787662 0.0036439
vt -0.01803743 -0.4384977
vt 0.2014935 -0.5076265
vt 0.2014948 -0.4314484
vt 0.1630601 0.003472656
vt 0.1630611 -0.438669
vt -0.2486376 -0.01811866
vt -0.188601 -0.1630611
vt -0.2330547 -0.2014948
vt -0.3072422 -0.02238905
vt -0.1887617 0.1630601
vt -0.2487983 0.01811769
vt -0.3074408 0.02238786
vt -0.2332533 0.2014935
vt -0.2486375 0.01811638
vt -0.2486376 -0.01811866
vt -0.3072422 -0.02238905
vt -0.3072421 0.02238669
vt -0.2487983 0.01811769
vt -0.2487982 -0.01811733
vt -0.3074407 -0.02238785
vt -0.3074408 0.02238786
vt 0.01961205 0.4956041
vt 0.01961102 0.4677946
vt -0.01961225 0.4956041
vt -0.01961329 0.4677946
vt -0.01835841 0.003680319
vt -0.01851922 0.4817794
vt -0.2042475 0.495511
vt -0.2042486 0.4677015
vt -0.1886794 0.003498346
vt -0.1886785 0.4815975
vt -0.019043 0.495314
vt -0.01921708 0.4675045
vt -0.01811733 0.003412336
vt -0.01811638 0.4815115
vt 0.01811769 0.003412336
vt 0.01811865 0.4815115
vt 0.0003863605 0.0003842461
vt 1 9.801114E-08
vt 1 9.801114E-08
vt 0.0003863605 0.0003842461
vt 0.9996133 0.1636914
vt 2.875549E-08 0.1640757
vt 2.875549E-08 0.1640757
vt 0.9996133 0.1636914
vt -0.2483159 0.01811865
vt -0.2483159 -0.01811638
vt -0.2688408 -0.01961099
vt -0.2688408 0.01961329
vt -0.248155 0.01811733
vt -0.2481551 -0.01811769
vt -0.2686667 -0.01961225
vt -0.2686667 0.01961201
vt -0.2483159 -0.01811638
vt -0.1882794 -0.1630563
vt -0.2038515 -0.1765079
vt -0.2688408 -0.01961099
vt -0.1881185 0.1630572
vt -0.248155 0.01811733
vt -0.2686667 0.01961201
vt -0.2036774 0.1765089
vt -0.1882794 -0.1630563
vt -0.1626574 -0.1886785
vt -0.1761158 -0.2042438
vt -0.2038515 -0.1765079
vt -0.1624966 0.1886794
vt -0.1881185 0.1630572
vt -0.2036774 0.1765089
vt -0.1759417 0.2042448
vt -0.1626574 -0.1886785
vt -0.01771573 -0.248717
vt -0.01921698 -0.2692352
vt -0.1761158 -0.2042438
vt -0.01755493 0.2487179
vt -0.1624966 0.1886794
vt -0.1759417 0.2042448
vt -0.01904291 0.2692362
vt -0.01771573 -0.248717
vt 0.01851922 -0.2487172
vt 0.02000721 -0.2692355
vt -0.01921698 -0.2692352
vt 0.01868002 0.2487181
vt -0.01755493 0.2487179
vt -0.01904291 0.2692362
vt 0.02018128 0.2692364
vt 0.01851922 -0.2487172
vt 0.1634607 -0.1886808
vt 0.1769058 -0.2042462
vt 0.02000721 -0.2692355
vt 0.1636215 0.1886817
vt 0.01868002 0.2487181
vt 0.02018128 0.2692364
vt 0.1770799 0.2042472
vt 0.1634607 -0.1886808
vt 0.1890827 -0.1630587
vt 0.2046415 -0.1765105
vt 0.1769058 -0.2042462
vt 0.1892435 0.1630597
vt 0.1636215 0.1886817
vt 0.1770799 0.2042472
vt 0.2048156 0.1765115
vt 0.01819762 -0.2487196
vt 0.1631392 -0.1886831
vt 0.2015916 -0.233156
vt 0.02248692 -0.3073433
vt 0.1629783 0.1886821
vt 0.01803681 0.2487185
vt 0.02228821 0.307342
vt 0.2013928 0.2331547
vt -0.01803743 -0.2487196
vt 0.01819762 -0.2487196
vt 0.02248692 -0.3073433
vt -0.02228883 -0.3073433
vt 0.01803681 0.2487185
vt -0.01819823 0.2487185
vt -0.02248752 0.307342
vt 0.02228821 0.307342
vt -0.162979 -0.1886831
vt -0.01803743 -0.2487196
vt -0.02228883 -0.3073433
vt -0.2013935 -0.233156
vt -0.01819823 0.2487185
vt -0.1631397 0.1886821
vt -0.2015921 0.2331547
vt -0.02248752 0.307342
vt -0.188601 -0.1630611
vt -0.162979 -0.1886831
vt -0.2013935 -0.233156
vt -0.2330547 -0.2014948
vt -0.1631397 0.1886821
vt -0.1887617 0.1630601
vt -0.2332533 0.2014935
vt -0.2015921 0.2331547
vt 0.01851922 0.4817794
vt 0.01835841 0.003680319
vt 0.1886831 0.4815975
vt 0.1886821 0.003498346
vt 0.01811865 0.4815115
vt 0.01811769 0.003412336
vt 0.1634607 0.481925
vt 0.1632999 0.003825873
vt -0.1630611 0.4819507
vt -0.1630601 0.003851563
vt -0.01811865 0.482011
vt -0.01811769 0.003911883
vt 0.01811642 0.482011
vt 0.01811737 0.003911883
vt 0.1630587 0.4819507
vt 0.1630597 0.003851563
vt 0.1886808 0.481925
vt 0.1886817 0.003825873
vt -0.01851922 0.4817794
vt -0.01835841 0.003680319
vt -0.01961329 0.4677946
vt -0.01961225 0.4956041
vt 0.1626574 0.4815975
vt 0.1628182 0.003498346
vt 0.1769058 0.4677015
vt 0.1770799 0.495511
vt -0.01811638 0.4815115
vt -0.01811733 0.003412336
vt 0.1630601 0.003472656
vt -0.01921708 0.4675045
vt 0.2042475 0.4951564
vt 0.2042486 0.4673471
vt -0.01961201 0.4950633
vt -0.01961099 0.4672539
vt 0.9996133 0.1636914
vt 1 9.801114E-08
vt -0.1765089 0.4951287
vt -0.1765079 0.4673192
vt -0.2042448 0.4951564
vt -0.2042438 0.4673471
vt 0.01904291 0.495314
vt 0.01921698 0.4675045
vt -0.02018128 0.4953534
vt -0.02000721 0.4675439
vt -0.1770799 0.495511
vt -0.1769058 0.4677015
vt 0.1765115 0.4955387
vt 0.1765105 0.4677294
vt 0.1892435 0.1630597
vt 0.2492801 0.01811737
vt 0.2302278 0.0167295
vt 0.1747901 0.1505689
vt 0.2492801 0.01811737
vt 0.2492801 -0.01811769
vt 0.2302278 -0.01672987
vt 0.2302278 0.0167295
vt 0.2492801 -0.01811769
vt 0.1892435 -0.1630601
vt 0.1747901 -0.1505693
vt 0.2302278 -0.01672987
vt 0.1892435 -0.1630601
vt 0.1636215 -0.1886821
vt 0.1511308 -0.1742287
vt 0.1747901 -0.1505693
vt 0.1636215 -0.1886821
vt 0.01868002 -0.2487185
vt 0.01729218 -0.2296662
vt 0.1511308 -0.1742287
vt 0.01868002 -0.2487185
vt -0.01755501 -0.2487185
vt -0.01616717 -0.2296662
vt 0.01729218 -0.2296662
vt -0.01755501 -0.2487185
vt -0.1624965 -0.1886821
vt -0.1500058 -0.1742287
vt -0.01616717 -0.2296662
vt -0.1624965 -0.1886821
vt -0.1881185 -0.1630601
vt -0.1736651 -0.1505693
vt -0.1500058 -0.1742287
vt -0.1881185 -0.1630601
vt -0.2481551 -0.01811769
vt -0.2291028 -0.01672987
vt -0.1736651 -0.1505693
vt -0.2481551 -0.01811769
vt -0.248155 0.01811733
vt -0.2291027 0.01672947
vt -0.2291028 -0.01672987
vt -0.248155 0.01811733
vt -0.1881185 0.1630572
vt -0.1736652 0.1505667
vt -0.2291027 0.01672947
vt -0.1881185 0.1630572
vt -0.1624966 0.1886794
vt -0.1500059 0.1742261
vt -0.1736652 0.1505667
vt -0.1500059 0.5073001
vt -0.01616709 0.5074345
vt -0.01488557 0.4679107
vt -0.138472 0.4677866
vt -0.01616709 0.5074345
vt 0.01729218 0.5074681
vt 0.01601066 0.4679417
vt -0.01488557 0.4679107
vt 0.01729218 0.5074681
vt 0.1511308 0.5076026
vt 0.139597 0.4680658
vt 0.01601066 0.4679417
vt -0.1742282 0.5076026
vt -0.1505689 0.5076263
vt -0.1390359 0.4680877
vt -0.1608829 0.4680658
vt -0.1505689 0.5076263
vt -0.0167295 0.507682
vt -0.0154489 0.4681392
vt -0.1390359 0.4680877
vt -0.0167295 0.507682
vt 0.01672987 0.507682
vt 0.01544742 0.4681392
vt -0.0154489 0.4681392
vt 0.01672987 0.507682
vt 0.1505693 0.5076263
vt 0.1390345 0.4680877
vt 0.01544742 0.4681392
vt 0.1505693 0.5076263
vt 0.1742287 0.5076026
vt 0.1608815 0.4680658
vt 0.1390345 0.4680877
vt 0.1890827 -0.1630587
vt 0.2491194 -0.01811642
vt 0.2696309 -0.01961102
vt 0.2046415 -0.1765105
vt 0.2492801 0.01811737
vt 0.1892435 0.1630597
vt 0.2048156 0.1765115
vt 0.2698049 0.01961205
vt 0.2491194 -0.01811642
vt 0.2491194 0.01811865
vt 0.2696309 0.01961329
vt 0.2696309 -0.01961102
vt 0.2492801 -0.01811769
vt 0.2492801 0.01811737
vt 0.2698049 0.01961205
vt 0.2698049 -0.01961225
vt 0.2491194 0.01811865
vt 0.1890827 0.1630611
vt 0.2046415 0.1765128
vt 0.2696309 0.01961329
vt 0.1892435 -0.1630601
vt 0.2492801 -0.01811769
vt 0.2698049 -0.01961225
vt 0.2048156 -0.1765117
vt 0.1890827 0.1630611
vt 0.1634607 0.1886831
vt 0.1769058 0.2042486
vt 0.2046415 0.1765128
vt 0.1636215 -0.1886821
vt 0.1892435 -0.1630601
vt 0.2048156 -0.1765117
vt 0.1770799 -0.2042475
vt 0.1634607 0.1886831
vt 0.01851922 0.2487195
vt 0.02000721 0.2692378
vt 0.1769058 0.2042486
vt 0.01868002 -0.2487185
vt 0.1636215 -0.1886821
vt 0.1770799 -0.2042475
vt 0.02018128 -0.2692367
vt 0.01851922 0.2487195
vt -0.01771582 0.2487195
vt -0.01921708 0.2692378
vt 0.02000721 0.2692378
vt -0.01755501 -0.2487185
vt 0.01868002 -0.2487185
vt 0.02018128 -0.2692367
vt -0.019043 -0.2692367
vt -0.01771582 0.2487195
vt -0.1626573 0.1886831
vt -0.1761157 0.2042486
vt -0.01921708 0.2692378
vt -0.1624965 -0.1886821
vt -0.01755501 -0.2487185
vt -0.019043 -0.2692367
vt -0.1759416 -0.2042475
vt -0.1626573 0.1886831
vt -0.1882793 0.1630611
vt -0.2038514 0.1765128
vt -0.1761157 0.2042486
vt -0.1881185 -0.1630601
vt -0.1624965 -0.1886821
vt -0.1759416 -0.2042475
vt -0.2036773 -0.1765117
vt -0.1624966 0.1886794
vt -0.01755493 0.2487179
vt -0.01616709 0.2296656
vt -0.1500059 0.1742261
vt -0.01755493 0.2487179
vt 0.01868002 0.2487181
vt 0.01729218 0.2296658
vt -0.01616709 0.2296656
vt 0.01868002 0.2487181
vt 0.1636215 0.1886817
vt 0.1511308 0.1742282
vt 0.01729218 0.2296658
vt 0.1636215 0.1886817
vt 0.1892435 0.1630597
vt 0.1747901 0.1505689
vt 0.1511308 0.1742282
vt 0.0838867 0.09641831
vt 0.09697971 0.08332528
vt 0.1614439 0.1390359
vt 0.139597 0.1608829
vt 0.009820668 0.1270973
vt 0.0838867 0.09641831
vt 0.139597 0.1608829
vt 0.01601066 0.2120738
vt -0.008695624 0.1270972
vt 0.009820668 0.1270973
vt 0.01601066 0.2120738
vt -0.01488557 0.2120736
vt -0.08276173 0.09641714
vt -0.008695624 0.1270972
vt -0.01488557 0.2120736
vt -0.138472 0.160881
vt -0.1511308 0.5076026
vt -0.01729218 0.5074681
vt -0.01601066 0.4679417
vt -0.139597 0.4680658
vt -0.01729218 0.5074681
vt 0.01616717 0.5074345
vt 0.01488564 0.4679107
vt -0.01601066 0.4679417
vt 0.01616717 0.5074345
vt 0.1500058 0.5073001
vt 0.138472 0.4677866
vt 0.01488564 0.4679107
vt 0.1500058 0.5073001
vt 0.1736651 0.5072764
vt 0.1603189 0.4677646
vt 0.138472 0.4677866
vt -0.1505693 0.5072764
vt -0.01672987 0.5072207
vt -0.01544742 0.4677133
vt -0.1390345 0.4677646
vt -0.01672987 0.5072207
vt 0.01672947 0.5072207
vt 0.01544887 0.4677133
vt -0.01544742 0.4677133
vt 0.01672947 0.5072207
vt 0.1505667 0.5072764
vt 0.1390339 0.4677646
vt 0.01544887 0.4677133
vt -0.1736652 0.5072764
vt -0.1500059 0.5073001
vt -0.138472 0.4677866
vt -0.160319 0.4677646
vt -0.09585474 0.08332404
vt -0.08276173 0.09641714
vt -0.138472 0.160881
vt -0.160319 0.1390339
vt -0.1265337 0.009258791
vt -0.09585474 0.08332404
vt -0.160319 0.1390339
vt -0.2115099 0.01544887
vt -0.1265338 -0.00925754
vt -0.1265337 0.009258791
vt -0.2115099 0.01544887
vt -0.2115099 -0.01544742
vt -0.0958547 -0.083324
vt -0.1265338 -0.00925754
vt -0.2115099 -0.01544742
vt -0.1603189 -0.1390345
vt -0.08276169 -0.09641702
vt -0.0958547 -0.083324
vt -0.1603189 -0.1390345
vt -0.138472 -0.1608815
vt -0.008695668 -0.1270961
vt -0.08276169 -0.09641702
vt -0.138472 -0.1608815
vt -0.01488564 -0.2120724
vt 0.009820668 -0.1270961
vt -0.008695668 -0.1270961
vt -0.01488564 -0.2120724
vt 0.01601066 -0.2120724
vt 0.0838867 -0.09641702
vt 0.009820668 -0.1270961
vt 0.01601066 -0.2120724
vt 0.139597 -0.1608815
vt 0.09697971 -0.083324
vt 0.0838867 -0.09641702
vt 0.139597 -0.1608815
vt 0.1614439 -0.1390345
vt 0.1276588 -0.00925754
vt 0.09697971 -0.083324
vt 0.1614439 -0.1390345
vt 0.212635 -0.01544742
vt 0.1276588 0.009258809
vt 0.1276588 -0.00925754
vt 0.212635 -0.01544742
vt 0.212635 0.0154489
vt 0.09697971 0.08332528
vt 0.1276588 0.009258809
vt 0.212635 0.0154489
vt 0.1614439 0.1390359

usemtl UModelerX_Gray_URP
f 242/242/242 161/161/161 162/162/162 
f 241/241/241 242/242/242 162/162/162 
f 271/271/271 2/2/2 3/3/3 
f 272/272/272 271/271/271 3/3/3 
f 189/189/189 450/450/450 449/449/449 
f 190/190/190 189/189/189 449/449/449 
f 205/205/205 442/442/442 441/441/441 
f 206/206/206 205/205/205 441/441/441 
f 213/213/213 434/434/434 433/433/433 
f 214/214/214 213/213/213 433/433/433 
f 177/177/177 244/244/244 243/243/243 
f 178/178/178 177/177/177 243/243/243 
f 193/193/193 254/254/254 253/253/253 
f 194/194/194 193/193/193 253/253/253 
f 209/209/209 262/262/262 261/261/261 
f 210/210/210 209/209/209 261/261/261 
f 454/454/454 181/181/181 182/182/182 
f 453/453/453 454/454/454 182/182/182 
f 24/24/24 23/23/23 22/22/22 
f 462/462/462 24/24/24 22/22/22 
f 217/217/217 266/266/266 265/265/265 
f 218/218/218 217/217/217 265/265/265 
f 201/201/201 258/258/258 257/257/257 
f 202/202/202 201/201/201 257/257/257 
f 185/185/185 250/250/250 249/249/249 
f 186/186/186 185/185/185 249/249/249 
f 58/58/58 59/59/59 60/60/60 
f 57/57/57 58/58/58 60/60/60 
f 56/56/56 57/57/57 60/60/60 
f 55/55/55 56/56/56 60/60/60 
f 54/54/54 55/55/55 60/60/60 
f 53/53/53 54/54/54 60/60/60 
f 9/9/9 53/53/53 60/60/60 
f 10/10/10 9/9/9 60/60/60 
f 11/11/11 10/10/10 60/60/60 
f 12/12/12 11/11/11 60/60/60 
f 13/13/13 12/12/12 60/60/60 
f 14/14/14 13/13/13 60/60/60 
f 15/15/15 14/14/14 60/60/60 
f 16/16/16 15/15/15 60/60/60 
f 169/169/169 436/436/436 435/435/435 
f 170/170/170 169/169/169 435/435/435 
f 197/197/197 446/446/446 445/445/445 
f 198/198/198 197/197/197 445/445/445 
f 458/458/458 173/173/173 174/174/174 
f 457/457/457 458/458/458 174/174/174 
f 166/166/166 165/165/165 270/270/270 
f 167/167/167 166/166/166 270/270/270 
f 307/307/307 306/306/306 305/305/305 
f 308/308/308 307/307/307 305/305/305 
f 311/311/311 310/310/310 309/309/309 
f 312/312/312 311/311/311 309/309/309 
f 315/315/315 314/314/314 313/313/313 
f 316/316/316 315/315/315 313/313/313 
f 319/319/319 318/318/318 317/317/317 
f 320/320/320 319/319/319 317/317/317 
f 83/83/83 82/82/82 81/81/81 
f 84/84/84 83/83/83 81/81/81 
f 87/87/87 86/86/86 85/85/85 
f 88/88/88 87/87/87 85/85/85 
f 91/91/91 90/90/90 89/89/89 
f 92/92/92 91/91/91 89/89/89 
f 95/95/95 94/94/94 93/93/93 
f 96/96/96 95/95/95 93/93/93 
f 99/99/99 98/98/98 97/97/97 
f 100/100/100 99/99/99 97/97/97 
f 103/103/103 102/102/102 101/101/101 
f 104/104/104 103/103/103 101/101/101 
f 107/107/107 106/106/106 105/105/105 
f 108/108/108 107/107/107 105/105/105 
f 111/111/111 110/110/110 109/109/109 
f 112/112/112 111/111/111 109/109/109 
f 115/115/115 114/114/114 113/113/113 
f 116/116/116 115/115/115 113/113/113 
f 119/119/119 118/118/118 117/117/117 
f 120/120/120 119/119/119 117/117/117 
f 123/123/123 122/122/122 121/121/121 
f 124/124/124 123/123/123 121/121/121 
f 127/127/127 126/126/126 125/125/125 
f 128/128/128 127/127/127 125/125/125 
f 168/168/168 5/5/5 6/6/6 
f 1/1/1 168/168/168 6/6/6 
f 463/463/463 223/223/223 222/222/222 
f 464/464/464 463/463/463 222/222/222 
f 72/72/72 460/460/460 459/459/459 
f 71/71/71 72/72/72 459/459/459 
f 248/248/248 29/29/29 30/30/30 
f 247/247/247 248/248/248 30/30/30 
f 40/40/40 456/456/456 455/455/455 
f 39/39/39 40/40/40 455/455/455 
f 252/252/252 52/52/52 51/51/51 
f 251/251/251 252/252/252 51/51/51 
f 68/68/68 452/452/452 451/451/451 
f 67/67/67 68/68/68 451/451/451 
f 256/256/256 80/80/80 79/79/79 
f 255/255/255 256/256/256 79/79/79 
f 36/36/36 448/448/448 447/447/447 
f 35/35/35 36/36/36 447/447/447 
f 260/260/260 48/48/48 47/47/47 
f 259/259/259 260/260/260 47/47/47 
f 17/17/17 444/444/444 443/443/443 
f 18/18/18 17/17/17 443/443/443 
f 264/264/264 76/76/76 75/75/75 
f 263/263/263 264/264/264 75/75/75 
f 64/64/64 440/440/440 439/439/439 
f 63/63/63 64/64/64 439/439/439 
f 268/268/268 44/44/44 43/43/43 
f 267/267/267 268/268/268 43/43/43 
f 25/25/25 224/224/224 21/21/21 
f 26/26/26 25/25/25 21/21/21 
f 238/238/238 239/239/239 240/240/240 
f 237/237/237 238/238/238 240/240/240 
f 236/236/236 237/237/237 240/240/240 
f 235/235/235 236/236/236 240/240/240 
f 234/234/234 235/235/235 240/240/240 
f 233/233/233 234/234/234 240/240/240 
f 232/232/232 233/233/233 240/240/240 
f 231/231/231 232/232/232 240/240/240 
f 230/230/230 231/231/231 240/240/240 
f 229/229/229 230/230/230 240/240/240 
f 228/228/228 229/229/229 240/240/240 
f 227/227/227 228/228/228 240/240/240 
f 226/226/226 227/227/227 240/240/240 
f 225/225/225 226/226/226 240/240/240 
f 273/273/273 8/8/8 7/7/7 
f 274/274/274 273/273/273 7/7/7 
f 275/275/275 164/164/164 163/163/163 
f 276/276/276 275/275/275 163/163/163 
f 180/180/180 277/277/277 278/278/278 
f 179/179/179 180/180/180 278/278/278 
f 279/279/279 32/32/32 31/31/31 
f 280/280/280 279/279/279 31/31/31 
f 188/188/188 281/281/281 282/282/282 
f 187/187/187 188/188/188 282/282/282 
f 283/283/283 49/49/49 50/50/50 
f 284/284/284 283/283/283 50/50/50 
f 196/196/196 285/285/285 286/286/286 
f 195/195/195 196/196/196 286/286/286 
f 287/287/287 77/77/77 78/78/78 
f 288/288/288 287/287/287 78/78/78 
f 204/204/204 289/289/289 290/290/290 
f 203/203/203 204/204/204 290/290/290 
f 291/291/291 45/45/45 46/46/46 
f 292/292/292 291/291/291 46/46/46 
f 212/212/212 293/293/293 294/294/294 
f 211/211/211 212/212/212 294/294/294 
f 295/295/295 73/73/73 74/74/74 
f 296/296/296 295/295/295 74/74/74 
f 220/220/220 297/297/297 298/298/298 
f 219/219/219 220/220/220 298/298/298 
f 299/299/299 41/41/41 42/42/42 
f 300/300/300 299/299/299 42/42/42 
f 246/246/246 301/301/301 302/302/302 
f 245/245/245 246/246/246 302/302/302 
f 303/303/303 269/269/269 4/4/4 
f 304/304/304 303/303/303 4/4/4 
f 28/28/28 465/465/465 466/466/466 
f 27/27/27 28/28/28 466/466/466 
f 172/172/172 467/467/467 468/468/468 
f 171/171/171 172/172/172 468/468/468 
f 216/216/216 469/469/469 470/470/470 
f 215/215/215 216/216/216 470/470/470 
f 61/61/61 471/471/471 472/472/472 
f 62/62/62 61/61/61 472/472/472 
f 208/208/208 473/473/473 474/474/474 
f 207/207/207 208/208/208 474/474/474 
f 20/20/20 475/475/475 476/476/476 
f 19/19/19 20/20/20 476/476/476 
f 200/200/200 477/477/477 478/478/478 
f 199/199/199 200/200/200 478/478/478 
f 33/33/33 479/479/479 480/480/480 
f 34/34/34 33/33/33 480/480/480 
f 192/192/192 321/321/321 322/322/322 
f 191/191/191 192/192/192 322/322/322 
f 65/65/65 323/323/323 324/324/324 
f 66/66/66 65/65/65 324/324/324 
f 325/325/325 184/184/184 183/183/183 
f 326/326/326 325/325/325 183/183/183 
f 37/37/37 327/327/327 328/328/328 
f 38/38/38 37/37/37 328/328/328 
f 329/329/329 176/176/176 175/175/175 
f 330/330/330 329/329/329 175/175/175 
f 69/69/69 331/331/331 332/332/332 
f 70/70/70 69/69/69 332/332/332 
f 333/333/333 438/438/438 437/437/437 
f 334/334/334 333/333/333 437/437/437 
f 335/335/335 461/461/461 221/221/221 
f 336/336/336 335/335/335 221/221/221 
f 131/131/131 130/130/130 129/129/129 
f 132/132/132 131/131/131 129/129/129 
f 135/135/135 134/134/134 133/133/133 
f 136/136/136 135/135/135 133/133/133 
f 139/139/139 138/138/138 137/137/137 
f 140/140/140 139/139/139 137/137/137 
f 143/143/143 142/142/142 141/141/141 
f 144/144/144 143/143/143 141/141/141 
f 147/147/147 146/146/146 145/145/145 
f 148/148/148 147/147/147 145/145/145 
f 151/151/151 150/150/150 149/149/149 
f 152/152/152 151/151/151 149/149/149 
f 155/155/155 154/154/154 153/153/153 
f 156/156/156 155/155/155 153/153/153 
f 159/159/159 158/158/158 157/157/157 
f 160/160/160 159/159/159 157/157/157 
f 403/403/403 402/402/402 401/401/401 
f 404/404/404 403/403/403 401/401/401 
f 407/407/407 406/406/406 405/405/405 
f 408/408/408 407/407/407 405/405/405 
f 411/411/411 410/410/410 409/409/409 
f 412/412/412 411/411/411 409/409/409 
f 415/415/415 414/414/414 413/413/413 
f 416/416/416 415/415/415 413/413/413 
f 419/419/419 418/418/418 417/417/417 
f 420/420/420 419/419/419 417/417/417 
f 423/423/423 422/422/422 421/421/421 
f 424/424/424 423/423/423 421/421/421 
f 427/427/427 426/426/426 425/425/425 
f 428/428/428 427/427/427 425/425/425 
f 431/431/431 430/430/430 429/429/429 
f 432/432/432 431/431/431 429/429/429 
f 563/563/563 562/562/562 561/561/561 
f 564/564/564 563/563/563 561/561/561 
f 567/567/567 566/566/566 565/565/565 
f 568/568/568 567/567/567 565/565/565 
f 571/571/571 570/570/570 569/569/569 
f 572/572/572 571/571/571 569/569/569 
f 575/575/575 574/574/574 573/573/573 
f 576/576/576 575/575/575 573/573/573 
f 579/579/579 578/578/578 577/577/577 
f 580/580/580 579/579/579 577/577/577 
f 583/583/583 582/582/582 581/581/581 
f 584/584/584 583/583/583 581/581/581 
f 587/587/587 586/586/586 585/585/585 
f 588/588/588 587/587/587 585/585/585 
f 591/591/591 590/590/590 589/589/589 
f 592/592/592 591/591/591 589/589/589 
f 595/595/595 594/594/594 593/593/593 
f 596/596/596 595/595/595 593/593/593 
f 599/599/599 598/598/598 597/597/597 
f 600/600/600 599/599/599 597/597/597 
f 603/603/603 602/602/602 601/601/601 
f 604/604/604 603/603/603 601/601/601 
f 607/607/607 606/606/606 605/605/605 
f 608/608/608 607/607/607 605/605/605 
f 611/611/611 610/610/610 609/609/609 
f 612/612/612 611/611/611 609/609/609 
f 615/615/615 614/614/614 613/613/613 
f 616/616/616 615/615/615 613/613/613 
f 619/619/619 618/618/618 617/617/617 
f 620/620/620 619/619/619 617/617/617 
f 623/623/623 622/622/622 621/621/621 
f 624/624/624 623/623/623 621/621/621 
f 339/339/339 338/338/338 337/337/337 
f 340/340/340 339/339/339 337/337/337 
f 343/343/343 342/342/342 341/341/341 
f 344/344/344 343/343/343 341/341/341 
f 347/347/347 346/346/346 345/345/345 
f 348/348/348 347/347/347 345/345/345 
f 351/351/351 350/350/350 349/349/349 
f 352/352/352 351/351/351 349/349/349 
f 355/355/355 354/354/354 353/353/353 
f 356/356/356 355/355/355 353/353/353 
f 359/359/359 358/358/358 357/357/357 
f 360/360/360 359/359/359 357/357/357 
f 363/363/363 362/362/362 361/361/361 
f 364/364/364 363/363/363 361/361/361 
f 367/367/367 366/366/366 365/365/365 
f 368/368/368 367/367/367 365/365/365 
f 371/371/371 370/370/370 369/369/369 
f 372/372/372 371/371/371 369/369/369 
f 375/375/375 374/374/374 373/373/373 
f 376/376/376 375/375/375 373/373/373 
f 379/379/379 378/378/378 377/377/377 
f 380/380/380 379/379/379 377/377/377 
f 383/383/383 382/382/382 381/381/381 
f 384/384/384 383/383/383 381/381/381 
f 387/387/387 386/386/386 385/385/385 
f 388/388/388 387/387/387 385/385/385 
f 391/391/391 390/390/390 389/389/389 
f 392/392/392 391/391/391 389/389/389 
f 395/395/395 394/394/394 393/393/393 
f 396/396/396 395/395/395 393/393/393 
f 399/399/399 398/398/398 397/397/397 
f 400/400/400 399/399/399 397/397/397 
f 531/531/531 530/530/530 529/529/529 
f 532/532/532 531/531/531 529/529/529 
f 535/535/535 534/534/534 533/533/533 
f 536/536/536 535/535/535 533/533/533 
f 539/539/539 538/538/538 537/537/537 
f 540/540/540 539/539/539 537/537/537 
f 543/543/543 542/542/542 541/541/541 
f 544/544/544 543/543/543 541/541/541 
f 547/547/547 546/546/546 545/545/545 
f 548/548/548 547/547/547 545/545/545 
f 551/551/551 550/550/550 549/549/549 
f 552/552/552 551/551/551 549/549/549 
f 555/555/555 554/554/554 553/553/553 
f 556/556/556 555/555/555 553/553/553 
f 559/559/559 558/558/558 557/557/557 
f 560/560/560 559/559/559 557/557/557 
f 659/659/659 658/658/658 657/657/657 
f 660/660/660 659/659/659 657/657/657 
f 663/663/663 662/662/662 661/661/661 
f 664/664/664 663/663/663 661/661/661 
f 667/667/667 666/666/666 665/665/665 
f 668/668/668 667/667/667 665/665/665 
f 671/671/671 670/670/670 669/669/669 
f 672/672/672 671/671/671 669/669/669 
f 675/675/675 674/674/674 673/673/673 
f 676/676/676 675/675/675 673/673/673 
f 679/679/679 678/678/678 677/677/677 
f 680/680/680 679/679/679 677/677/677 
f 683/683/683 682/682/682 681/681/681 
f 684/684/684 683/683/683 681/681/681 
f 687/687/687 686/686/686 685/685/685 
f 688/688/688 687/687/687 685/685/685 
f 627/627/627 626/626/626 625/625/625 
f 628/628/628 627/627/627 625/625/625 
f 631/631/631 630/630/630 629/629/629 
f 632/632/632 631/631/631 629/629/629 
f 635/635/635 634/634/634 633/633/633 
f 636/636/636 635/635/635 633/633/633 
f 639/639/639 638/638/638 637/637/637 
f 640/640/640 639/639/639 637/637/637 
f 483/483/483 482/482/482 481/481/481 
f 484/484/484 483/483/483 481/481/481 
f 487/487/487 486/486/486 485/485/485 
f 488/488/488 487/487/487 485/485/485 
f 491/491/491 490/490/490 489/489/489 
f 492/492/492 491/491/491 489/489/489 
f 495/495/495 494/494/494 493/493/493 
f 496/496/496 495/495/495 493/493/493 
f 499/499/499 498/498/498 497/497/497 
f 500/500/500 499/499/499 497/497/497 
f 503/503/503 502/502/502 501/501/501 
f 504/504/504 503/503/503 501/501/501 
f 507/507/507 506/506/506 505/505/505 
f 508/508/508 507/507/507 505/505/505 
f 511/511/511 510/510/510 509/509/509 
f 512/512/512 511/511/511 509/509/509 
f 515/515/515 514/514/514 513/513/513 
f 516/516/516 515/515/515 513/513/513 
f 519/519/519 518/518/518 517/517/517 
f 520/520/520 519/519/519 517/517/517 
f 523/523/523 522/522/522 521/521/521 
f 524/524/524 523/523/523 521/521/521 
f 527/527/527 526/526/526 525/525/525 
f 528/528/528 527/527/527 525/525/525 
f 690/690/690 691/691/691 692/692/692 
f 689/689/689 690/690/690 692/692/692 
f 694/694/694 695/695/695 696/696/696 
f 693/693/693 694/694/694 696/696/696 
f 698/698/698 699/699/699 700/700/700 
f 697/697/697 698/698/698 700/700/700 
f 702/702/702 703/703/703 704/704/704 
f 701/701/701 702/702/702 704/704/704 
f 706/706/706 707/707/707 708/708/708 
f 705/705/705 706/706/706 708/708/708 
f 710/710/710 711/711/711 712/712/712 
f 709/709/709 710/710/710 712/712/712 
f 714/714/714 715/715/715 716/716/716 
f 713/713/713 714/714/714 716/716/716 
f 718/718/718 719/719/719 720/720/720 
f 717/717/717 718/718/718 720/720/720 
f 722/722/722 723/723/723 724/724/724 
f 721/721/721 722/722/722 724/724/724 
f 726/726/726 727/727/727 728/728/728 
f 725/725/725 726/726/726 728/728/728 
f 730/730/730 731/731/731 732/732/732 
f 729/729/729 730/730/730 732/732/732 
f 734/734/734 735/735/735 736/736/736 
f 733/733/733 734/734/734 736/736/736 
f 642/642/642 643/643/643 644/644/644 
f 641/641/641 642/642/642 644/644/644 
f 646/646/646 647/647/647 648/648/648 
f 645/645/645 646/646/646 648/648/648 
f 650/650/650 651/651/651 652/652/652 
f 649/649/649 650/650/650 652/652/652 
f 654/654/654 655/655/655 656/656/656 
f 653/653/653 654/654/654 656/656/656 

